<svg xmlns="http://www.w3.org/2000/svg" viewBox="38 6 326 130" width="326" height="130" role="img" aria-label="A blueprint of connected building blocks: designing cloud architectures"><defs><linearGradient id="bg" x1="0" y1="0" x2="1" y2="1"><stop offset="0" stop-color="#EFF6FF"/><stop offset="1" stop-color="#FFF7ED"/></linearGradient></defs><rect x="96" y="20" width="208" height="112" rx="10" fill="#2563EB"/><rect x="104" y="28" width="192" height="96" rx="6" fill="#1D4ED8"/>
<g stroke="#60A5FA" stroke-width=".8" opacity=".6"><path d="M104 28V124"/><path d="M123.2 28V124"/><path d="M142.4 28V124"/><path d="M161.6 28V124"/><path d="M180.8 28V124"/><path d="M200 28V124"/><path d="M219.2 28V124"/><path d="M238.4 28V124"/><path d="M257.6 28V124"/><path d="M276.79999999999995 28V124"/><path d="M296 28V124"/><path d="M104 28H296"/><path d="M104 47.2H296"/><path d="M104 66.4H296"/><path d="M104 85.6H296"/><path d="M104 104.8H296"/><path d="M104 124H296"/></g>
<g fill="#fff"><rect x="124" y="46" width="34" height="26" rx="5"/><rect x="183" y="40" width="34" height="26" rx="5" fill="#FDBA74"/><rect x="242" y="46" width="34" height="26" rx="5"/><rect x="153" y="86" width="34" height="26" rx="5"/><rect x="213" y="86" width="34" height="26" rx="5" fill="#FDBA74"/></g>
<g stroke="#fff" stroke-width="2.4" stroke-linecap="round" fill="none"><path d="M158 59H183M217 53H242M141 72V79H170V86M259 72V79H230V86M187 99H213M200 66V79"/></g>
<g transform="translate(336 100) rotate(25)"><rect x="-5" y="-38" width="10" height="64" rx="2" fill="#F97316"/><path d="M-5 26L0 38L5 26Z" fill="#FDE68A"/></g><path d="M58 36L60.24 41.76L66 44L60.24 46.24L58 52L55.76 46.24L50 44L55.76 41.76Z" fill="#F97316"/><path d="M66 103L67.4 106.6L71 108L67.4 109.4L66 113L64.6 109.4L61 108L64.6 106.6Z" fill="#2563EB"/><path d="M356 24L357.68 28.32L362 30L357.68 31.68L356 36L354.32 31.68L350 30L354.32 28.32Z" fill="#2563EB"/></svg>
