<svg xmlns="http://www.w3.org/2000/svg" viewBox="0 0 600 130" width="600" height="130" role="img" aria-label="Learn, prepare, practise, take the exam"><defs></defs><rect x="1" y="1" width="598" height="128" rx="16" fill="#fff" stroke="#E2E8F0" stroke-width="1.6"/><circle cx="58" cy="48" r="28" fill="#FFEDD5"/><g transform="translate(38.8 28.799999999999997) scale(.8)" fill="none" stroke="#F97316" stroke-width="2.6" stroke-linecap="round" stroke-linejoin="round"><path d="M24 11C17 11 13 16 13 21C13 25 15 27 17 30V34H31V30C33 27 35 25 35 21C35 16 31 11 24 11Z"/><path d="M19 38H29"/></g><text x="58" y="98" text-anchor="middle" font-family="Nunito,Arial,sans-serif" font-size="13" font-weight="800" fill="#1E293B">Learn</text><path d="M120.66666666666666 48H142.66666666666666" stroke="#94A3B8" stroke-width="2.4" stroke-linecap="round"/><path d="M148.66666666666666 48L140.66666666666666 43V53Z" fill="#94A3B8"/><circle cx="219.33333333333331" cy="48" r="28" fill="#DBEAFE"/><g transform="translate(200.13333333333333 28.799999999999997) scale(.8)" fill="none" stroke="#2563EB" stroke-width="2.6" stroke-linecap="round" stroke-linejoin="round"><path d="M10 14C16 12 21 13 24 16V37C21 34 16 33 10 35Z"/><path d="M38 14C32 12 27 13 24 16V37C27 34 32 33 38 35Z"/></g><text x="219.33333333333331" y="98" text-anchor="middle" font-family="Nunito,Arial,sans-serif" font-size="13" font-weight="800" fill="#1E293B">Prepare</text><path d="M282 48H304" stroke="#94A3B8" stroke-width="2.4" stroke-linecap="round"/><path d="M310 48L302 43V53Z" fill="#94A3B8"/><circle cx="380.66666666666663" cy="48" r="28" fill="#DCFCE7"/><g transform="translate(361.46666666666664 28.799999999999997) scale(.8)" fill="none" stroke="#16A34A" stroke-width="2.6" stroke-linecap="round" stroke-linejoin="round"><rect x="13" y="11" width="22" height="28" rx="3"/><path d="M18 22L22 26L30 17M18 32H30"/></g><text x="380.66666666666663" y="98" text-anchor="middle" font-family="Nunito,Arial,sans-serif" font-size="13" font-weight="800" fill="#1E293B">Practise</text><path d="M443.3333333333333 48H465.3333333333333" stroke="#94A3B8" stroke-width="2.4" stroke-linecap="round"/><path d="M471.3333333333333 48L463.3333333333333 43V53Z" fill="#94A3B8"/><circle cx="542" cy="48" r="28" fill="#FFEDD5"/><g transform="translate(522.8 28.799999999999997) scale(.8)" fill="none" stroke="#F97316" stroke-width="2.6" stroke-linecap="round" stroke-linejoin="round"><path d="M15 11H33V21C33 27 29 31 24 31C19 31 15 27 15 21Z"/><path d="M15 14H10C10 19 12 22 15 23M33 14H38C38 19 36 22 33 23M24 31V36M18 38H30"/></g><text x="542" y="98" text-anchor="middle" font-family="Nunito,Arial,sans-serif" font-size="13" font-weight="800" fill="#1E293B">Take the exam</text></svg>
