<svg xmlns="http://www.w3.org/2000/svg" viewBox="0 0 900 831" width="900" height="831" role="img" aria-label="Global application with low latency"><rect width="900" height="831" rx="12" fill="#ffffff"/><g transform="translate(286 47) scale(1)"><rect width="48" height="48" rx="5" fill="#232F3E"/><g fill="none" stroke="#fff" stroke-width="2" stroke-linecap="round" stroke-linejoin="round"><circle cx="18" cy="17" r="5"/><path d="M8 36C8 28 28 28 28 36"/><circle cx="32" cy="19" r="4.5"/><path d="M30 29C36 27 41 30 41 36"/></g></g><text x="310" y="114" text-anchor="middle" style="font-family:'Plus Jakarta Sans','Nunito',Arial,sans-serif;font-size:11.5px;font-weight:600;fill:#1a1f36">Users worldwide</text><g transform="translate(426 27.5) scale(1)"><rect width="48" height="48" rx="5" fill="#8C4FFF"/><g fill="none" stroke="#fff" stroke-width="2" stroke-linecap="round" stroke-linejoin="round"><circle cx="24" cy="24" r="14"/><text x="24" y="29.5" text-anchor="middle" style="font:700 15px Arial;fill:#fff" stroke="none">53</text></g></g><text x="450" y="94.5" text-anchor="middle" style="font-family:'Plus Jakarta Sans','Nunito',Arial,sans-serif;font-size:11.5px;font-weight:600;fill:#1a1f36">Route 53</text><text x="450" y="109.5" text-anchor="middle" style="font-family:'Plus Jakarta Sans','Nunito',Arial,sans-serif;font-size:10px;fill:#5f6881">latency routing:</text><text x="450" y="122.5" text-anchor="middle" style="font-family:'Plus Jakarta Sans','Nunito',Arial,sans-serif;font-size:10px;fill:#5f6881">nearest healthy</text><text x="450" y="135.5" text-anchor="middle" style="font-family:'Plus Jakarta Sans','Nunito',Arial,sans-serif;font-size:10px;fill:#5f6881">endpoint</text><g transform="translate(566 14) scale(1)"><rect width="48" height="48" rx="5" fill="#8C4FFF"/><g fill="none" stroke="#fff" stroke-width="2" stroke-linecap="round" stroke-linejoin="round"><circle cx="24" cy="24" r="14"/><ellipse cx="24" cy="24" rx="6.5" ry="14"/><path d="M10 24H38"/></g></g><text x="590" y="81" text-anchor="middle" style="font-family:'Plus Jakarta Sans','Nunito',Arial,sans-serif;font-size:11.5px;font-weight:600;fill:#1a1f36">Global</text><text x="590" y="95" text-anchor="middle" style="font-family:'Plus Jakarta Sans','Nunito',Arial,sans-serif;font-size:11.5px;font-weight:600;fill:#1a1f36">Accelerator</text><text x="590" y="110" text-anchor="middle" style="font-family:'Plus Jakarta Sans','Nunito',Arial,sans-serif;font-size:10px;fill:#5f6881">TCP/UDP, AWS</text><text x="590" y="123" text-anchor="middle" style="font-family:'Plus Jakarta Sans','Nunito',Arial,sans-serif;font-size:10px;fill:#5f6881">backbone OR</text><text x="590" y="136" text-anchor="middle" style="font-family:'Plus Jakarta Sans','Nunito',Arial,sans-serif;font-size:10px;fill:#5f6881">CloudFront:</text><text x="590" y="149" text-anchor="middle" style="font-family:'Plus Jakarta Sans','Nunito',Arial,sans-serif;font-size:10px;fill:#5f6881">HTTP/HTTPS CDN</text><rect x="14" y="172" width="279.20000000000005" height="524" rx="8" fill="none" stroke="#00A4A6" stroke-width="1.6" stroke-dasharray="6 4"/><g transform="translate(22 178) scale(0.4583333333333333)"><rect width="48" height="48" rx="5" fill="#00A4A6"/><g fill="none" stroke="#fff" stroke-width="2" stroke-linecap="round" stroke-linejoin="round"><path d="M24 40C24 40 12 28 12 20a12 12 0 0 1 24 0C36 28 24 40 24 40Z"/><circle cx="24" cy="20" r="4"/></g></g><text x="50" y="194" style="font-family:'Plus Jakarta Sans','Nunito',Arial,sans-serif;font-size:12.5px;font-weight:700;fill:#00A4A6">us-east-1 (North America users)</text><g transform="translate(129.60000000000002 206) scale(1)"><rect width="48" height="48" rx="5" fill="#8C4FFF"/><g fill="none" stroke="#fff" stroke-width="2" stroke-linecap="round" stroke-linejoin="round"><circle cx="24" cy="13" r="4.5"/><circle cx="11" cy="35" r="3.5"/><circle cx="24" cy="35" r="3.5"/><circle cx="37" cy="35" r="3.5"/><path d="M24 17.5V31.5M21.5 16.5L12.5 31.5M26.5 16.5L35.5 31.5"/></g></g><text x="153.60000000000002" y="273" text-anchor="middle" style="font-family:'Plus Jakarta Sans','Nunito',Arial,sans-serif;font-size:11.5px;font-weight:600;fill:#1a1f36">ALB</text><g transform="translate(129.60000000000002 290) scale(1)"><rect width="48" height="48" rx="5" fill="#ED7100"/><g fill="none" stroke="#fff" stroke-width="2" stroke-linecap="round" stroke-linejoin="round"><path d="M9 17L24 9L39 17V33L24 41L9 33Z"/><path d="M24 9V41M9 17L39 33M39 17L9 33"/></g></g><text x="153.60000000000002" y="357" text-anchor="middle" style="font-family:'Plus Jakarta Sans','Nunito',Arial,sans-serif;font-size:11.5px;font-weight:600;fill:#1a1f36">ECS Fargate</text><g transform="translate(129.60000000000002 374) scale(1)"><rect width="48" height="48" rx="5" fill="#C925D1"/><g fill="none" stroke="#fff" stroke-width="2" stroke-linecap="round" stroke-linejoin="round"><ellipse cx="24" cy="14" rx="12" ry="4.5"/><path d="M12 14V34C12 37 17 39 24 39S36 37 36 34V14M12 24C12 27 17 29 24 29S36 27 36 24"/></g></g><text x="153.60000000000002" y="441" text-anchor="middle" style="font-family:'Plus Jakarta Sans','Nunito',Arial,sans-serif;font-size:11.5px;font-weight:600;fill:#1a1f36">ElastiCache Redis</text><text x="153.60000000000002" y="456" text-anchor="middle" style="font-family:'Plus Jakarta Sans','Nunito',Arial,sans-serif;font-size:10px;fill:#5f6881">local session cache</text><g transform="translate(129.60000000000002 471) scale(1)"><rect width="48" height="48" rx="5" fill="#C925D1"/><g fill="none" stroke="#fff" stroke-width="2" stroke-linecap="round" stroke-linejoin="round"><rect x="9" y="12" width="30" height="24"/><path d="M9 20H39M9 28H39M19 12V36"/></g></g><text x="153.60000000000002" y="538" text-anchor="middle" style="font-family:'Plus Jakarta Sans','Nunito',Arial,sans-serif;font-size:11.5px;font-weight:600;fill:#1a1f36">DynamoDB global</text><text x="153.60000000000002" y="552" text-anchor="middle" style="font-family:'Plus Jakarta Sans','Nunito',Arial,sans-serif;font-size:11.5px;font-weight:600;fill:#1a1f36">table</text><text x="153.60000000000002" y="567" text-anchor="middle" style="font-family:'Plus Jakarta Sans','Nunito',Arial,sans-serif;font-size:10px;fill:#5f6881">local reads/writes</text><g transform="translate(129.60000000000002 582) scale(1)"><rect width="48" height="48" rx="5" fill="#7AA116"/><g fill="none" stroke="#fff" stroke-width="2" stroke-linecap="round" stroke-linejoin="round"><path d="M11 18L15 37H33L37 18"/><ellipse cx="24" cy="18" rx="13" ry="4.5"/></g></g><text x="153.60000000000002" y="649" text-anchor="middle" style="font-family:'Plus Jakarta Sans','Nunito',Arial,sans-serif;font-size:11.5px;font-weight:600;fill:#1a1f36">S3 with CRR</text><text x="153.60000000000002" y="664" text-anchor="middle" style="font-family:'Plus Jakarta Sans','Nunito',Arial,sans-serif;font-size:10px;fill:#5f6881">static assets via</text><text x="153.60000000000002" y="677" text-anchor="middle" style="font-family:'Plus Jakarta Sans','Nunito',Arial,sans-serif;font-size:10px;fill:#5f6881">CloudFront</text><rect x="321.20000000000005" y="172" width="228.8" height="524" rx="8" fill="none" stroke="#00A4A6" stroke-width="1.6" stroke-dasharray="6 4"/><g transform="translate(329.20000000000005 178) scale(0.4583333333333333)"><rect width="48" height="48" rx="5" fill="#00A4A6"/><g fill="none" stroke="#fff" stroke-width="2" stroke-linecap="round" stroke-linejoin="round"><path d="M24 40C24 40 12 28 12 20a12 12 0 0 1 24 0C36 28 24 40 24 40Z"/><circle cx="24" cy="20" r="4"/></g></g><text x="357.20000000000005" y="194" style="font-family:'Plus Jakarta Sans','Nunito',Arial,sans-serif;font-size:12.5px;font-weight:700;fill:#00A4A6">eu-west-1 (Europe users)</text><g transform="translate(411.6 206) scale(1)"><rect width="48" height="48" rx="5" fill="#8C4FFF"/><g fill="none" stroke="#fff" stroke-width="2" stroke-linecap="round" stroke-linejoin="round"><circle cx="24" cy="13" r="4.5"/><circle cx="11" cy="35" r="3.5"/><circle cx="24" cy="35" r="3.5"/><circle cx="37" cy="35" r="3.5"/><path d="M24 17.5V31.5M21.5 16.5L12.5 31.5M26.5 16.5L35.5 31.5"/></g></g><text x="435.6" y="273" text-anchor="middle" style="font-family:'Plus Jakarta Sans','Nunito',Arial,sans-serif;font-size:11.5px;font-weight:600;fill:#1a1f36">ALB</text><g transform="translate(411.6 290) scale(1)"><rect width="48" height="48" rx="5" fill="#ED7100"/><g fill="none" stroke="#fff" stroke-width="2" stroke-linecap="round" stroke-linejoin="round"><path d="M9 17L24 9L39 17V33L24 41L9 33Z"/><path d="M24 9V41M9 17L39 33M39 17L9 33"/></g></g><text x="435.6" y="357" text-anchor="middle" style="font-family:'Plus Jakarta Sans','Nunito',Arial,sans-serif;font-size:11.5px;font-weight:600;fill:#1a1f36">ECS Fargate</text><g transform="translate(411.6 374) scale(1)"><rect width="48" height="48" rx="5" fill="#C925D1"/><g fill="none" stroke="#fff" stroke-width="2" stroke-linecap="round" stroke-linejoin="round"><ellipse cx="24" cy="14" rx="12" ry="4.5"/><path d="M12 14V34C12 37 17 39 24 39S36 37 36 34V14M12 24C12 27 17 29 24 29S36 27 36 24"/></g></g><text x="435.6" y="441" text-anchor="middle" style="font-family:'Plus Jakarta Sans','Nunito',Arial,sans-serif;font-size:11.5px;font-weight:600;fill:#1a1f36">ElastiCache Redis</text><text x="435.6" y="456" text-anchor="middle" style="font-family:'Plus Jakarta Sans','Nunito',Arial,sans-serif;font-size:10px;fill:#5f6881">local session cache</text><g transform="translate(411.6 471) scale(1)"><rect width="48" height="48" rx="5" fill="#C925D1"/><g fill="none" stroke="#fff" stroke-width="2" stroke-linecap="round" stroke-linejoin="round"><rect x="9" y="12" width="30" height="24"/><path d="M9 20H39M9 28H39M19 12V36"/></g></g><text x="435.6" y="538" text-anchor="middle" style="font-family:'Plus Jakarta Sans','Nunito',Arial,sans-serif;font-size:11.5px;font-weight:600;fill:#1a1f36">DynamoDB global</text><text x="435.6" y="552" text-anchor="middle" style="font-family:'Plus Jakarta Sans','Nunito',Arial,sans-serif;font-size:11.5px;font-weight:600;fill:#1a1f36">table</text><text x="435.6" y="567" text-anchor="middle" style="font-family:'Plus Jakarta Sans','Nunito',Arial,sans-serif;font-size:10px;fill:#5f6881">local reads/writes</text><g transform="translate(411.6 582) scale(1)"><rect width="48" height="48" rx="5" fill="#7AA116"/><g fill="none" stroke="#fff" stroke-width="2" stroke-linecap="round" stroke-linejoin="round"><path d="M11 18L15 37H33L37 18"/><ellipse cx="24" cy="18" rx="13" ry="4.5"/></g></g><text x="435.6" y="649" text-anchor="middle" style="font-family:'Plus Jakarta Sans','Nunito',Arial,sans-serif;font-size:11.5px;font-weight:600;fill:#1a1f36">S3 with CRR</text><text x="435.6" y="664" text-anchor="middle" style="font-family:'Plus Jakarta Sans','Nunito',Arial,sans-serif;font-size:10px;fill:#5f6881">static assets via</text><text x="435.6" y="677" text-anchor="middle" style="font-family:'Plus Jakarta Sans','Nunito',Arial,sans-serif;font-size:10px;fill:#5f6881">CloudFront</text><rect x="578" y="172" width="308" height="524" rx="8" fill="none" stroke="#00A4A6" stroke-width="1.6" stroke-dasharray="6 4"/><g transform="translate(586 178) scale(0.4583333333333333)"><rect width="48" height="48" rx="5" fill="#00A4A6"/><g fill="none" stroke="#fff" stroke-width="2" stroke-linecap="round" stroke-linejoin="round"><path d="M24 40C24 40 12 28 12 20a12 12 0 0 1 24 0C36 28 24 40 24 40Z"/><circle cx="24" cy="20" r="4"/></g></g><text x="614" y="194" style="font-family:'Plus Jakarta Sans','Nunito',Arial,sans-serif;font-size:12.5px;font-weight:700;fill:#00A4A6">ap-southeast-1 (Asia Pacific users)</text><g transform="translate(708 206) scale(1)"><rect width="48" height="48" rx="5" fill="#8C4FFF"/><g fill="none" stroke="#fff" stroke-width="2" stroke-linecap="round" stroke-linejoin="round"><circle cx="24" cy="13" r="4.5"/><circle cx="11" cy="35" r="3.5"/><circle cx="24" cy="35" r="3.5"/><circle cx="37" cy="35" r="3.5"/><path d="M24 17.5V31.5M21.5 16.5L12.5 31.5M26.5 16.5L35.5 31.5"/></g></g><text x="732" y="273" text-anchor="middle" style="font-family:'Plus Jakarta Sans','Nunito',Arial,sans-serif;font-size:11.5px;font-weight:600;fill:#1a1f36">ALB</text><g transform="translate(708 290) scale(1)"><rect width="48" height="48" rx="5" fill="#ED7100"/><g fill="none" stroke="#fff" stroke-width="2" stroke-linecap="round" stroke-linejoin="round"><path d="M9 17L24 9L39 17V33L24 41L9 33Z"/><path d="M24 9V41M9 17L39 33M39 17L9 33"/></g></g><text x="732" y="357" text-anchor="middle" style="font-family:'Plus Jakarta Sans','Nunito',Arial,sans-serif;font-size:11.5px;font-weight:600;fill:#1a1f36">ECS Fargate</text><g transform="translate(708 374) scale(1)"><rect width="48" height="48" rx="5" fill="#C925D1"/><g fill="none" stroke="#fff" stroke-width="2" stroke-linecap="round" stroke-linejoin="round"><ellipse cx="24" cy="14" rx="12" ry="4.5"/><path d="M12 14V34C12 37 17 39 24 39S36 37 36 34V14M12 24C12 27 17 29 24 29S36 27 36 24"/></g></g><text x="732" y="441" text-anchor="middle" style="font-family:'Plus Jakarta Sans','Nunito',Arial,sans-serif;font-size:11.5px;font-weight:600;fill:#1a1f36">ElastiCache Redis</text><text x="732" y="456" text-anchor="middle" style="font-family:'Plus Jakarta Sans','Nunito',Arial,sans-serif;font-size:10px;fill:#5f6881">local session cache</text><g transform="translate(708 471) scale(1)"><rect width="48" height="48" rx="5" fill="#C925D1"/><g fill="none" stroke="#fff" stroke-width="2" stroke-linecap="round" stroke-linejoin="round"><rect x="9" y="12" width="30" height="24"/><path d="M9 20H39M9 28H39M19 12V36"/></g></g><text x="732" y="538" text-anchor="middle" style="font-family:'Plus Jakarta Sans','Nunito',Arial,sans-serif;font-size:11.5px;font-weight:600;fill:#1a1f36">DynamoDB global</text><text x="732" y="552" text-anchor="middle" style="font-family:'Plus Jakarta Sans','Nunito',Arial,sans-serif;font-size:11.5px;font-weight:600;fill:#1a1f36">table</text><text x="732" y="567" text-anchor="middle" style="font-family:'Plus Jakarta Sans','Nunito',Arial,sans-serif;font-size:10px;fill:#5f6881">local reads/writes</text><g transform="translate(708 582) scale(1)"><rect width="48" height="48" rx="5" fill="#7AA116"/><g fill="none" stroke="#fff" stroke-width="2" stroke-linecap="round" stroke-linejoin="round"><path d="M11 18L15 37H33L37 18"/><ellipse cx="24" cy="18" rx="13" ry="4.5"/></g></g><text x="732" y="649" text-anchor="middle" style="font-family:'Plus Jakarta Sans','Nunito',Arial,sans-serif;font-size:11.5px;font-weight:600;fill:#1a1f36">S3 with CRR</text><text x="732" y="664" text-anchor="middle" style="font-family:'Plus Jakarta Sans','Nunito',Arial,sans-serif;font-size:10px;fill:#5f6881">static assets via</text><text x="732" y="677" text-anchor="middle" style="font-family:'Plus Jakarta Sans','Nunito',Arial,sans-serif;font-size:10px;fill:#5f6881">CloudFront</text><rect x="214" y="716" width="472" height="100.5" rx="8" fill="#FFF7EE" stroke="#ED7100" stroke-width="1.6"/><text x="226" y="738" style="font-family:'Plus Jakarta Sans','Nunito',Arial,sans-serif;font-size:12.5px;font-weight:700;fill:#ED7100">Global data synchronization</text><text x="230" y="762" text-anchor="start" style="font-family:'Plus Jakarta Sans','Nunito',Arial,sans-serif;font-size:11.5px;font-weight:500;fill:#5f6881">DynamoDB Global Tables: multi-active, &lt; 1 sec lag</text><text x="230" y="777.5" text-anchor="start" style="font-family:'Plus Jakarta Sans','Nunito',Arial,sans-serif;font-size:11.5px;font-weight:500;fill:#5f6881">Aurora Global Database: active-passive, &lt; 1 sec lag</text><text x="230" y="793" text-anchor="start" style="font-family:'Plus Jakarta Sans','Nunito',Arial,sans-serif;font-size:11.5px;font-weight:500;fill:#5f6881">S3 Cross-Region Replication: async, eventual consistency</text><path d="M334.0 71.0L380.0 71.0L380.0 51.5L426.0 51.5" fill="none" stroke="#5f6881" stroke-width="1.7" stroke-linejoin="round"/><path d="M426 51.5L418 47L418 56Z" fill="#5f6881"/><path d="M474.0 51.5L520.0 51.5L520.0 38.0L566.0 38.0" fill="none" stroke="#5f6881" stroke-width="1.7" stroke-linejoin="round"/><path d="M566 38L558 33.5L558 42.5Z" fill="#5f6881"/><path d="M590.0 150.0L590.0 161.0L153.6 161.0L153.6 172.0" fill="none" stroke="#5f6881" stroke-width="1.7" stroke-linejoin="round"/><path d="M153.60000000000002 172L149.10000000000002 164L158.10000000000002 164Z" fill="#5f6881"/><path d="M590.0 150.0L590.0 161.0L435.6 161.0L435.6 172.0" fill="none" stroke="#5f6881" stroke-width="1.7" stroke-linejoin="round"/><path d="M435.6 172L431.1 164L440.1 164Z" fill="#5f6881"/><path d="M590.0 150.0L590.0 161.0L732.0 161.0L732.0 172.0" fill="none" stroke="#5f6881" stroke-width="1.7" stroke-linejoin="round"/><path d="M732 172L727.5 164L736.5 164Z" fill="#5f6881"/></svg>
