<svg xmlns="http://www.w3.org/2000/svg" viewBox="0 0 783 556" width="783" height="556" role="img" aria-label="Pilot light DR strategy"><rect width="783" height="556" rx="12" fill="#ffffff"/><rect x="186.1" y="14" width="156.8" height="324" rx="8" fill="none" stroke="#00A4A6" stroke-width="1.6" stroke-dasharray="6 4"/><g transform="translate(194.1 20) scale(0.4583333333333333)"><rect width="48" height="48" rx="5" fill="#00A4A6"/><g fill="none" stroke="#fff" stroke-width="2" stroke-linecap="round" stroke-linejoin="round"><path d="M24 40C24 40 12 28 12 20a12 12 0 0 1 24 0C36 28 24 40 24 40Z"/><circle cx="24" cy="20" r="4"/></g></g><text x="222.1" y="36" style="font-family:'Plus Jakarta Sans','Nunito',Arial,sans-serif;font-size:12.5px;font-weight:700;fill:#00A4A6">PRIMARY REGION</text><g transform="translate(240.5 48) scale(1)"><rect width="48" height="48" rx="5" fill="#ED7100"/><g fill="none" stroke="#fff" stroke-width="2" stroke-linecap="round" stroke-linejoin="round"><rect x="15" y="15" width="18" height="18" rx="2"/><path d="M20 15V10M28 15V10M20 38V33M28 38V33M15 20H10M15 28H10M38 20H33M38 28H33"/></g></g><text x="264.5" y="115" text-anchor="middle" style="font-family:'Plus Jakarta Sans','Nunito',Arial,sans-serif;font-size:11.5px;font-weight:600;fill:#1a1f36">EC2 Auto Scaling</text><text x="264.5" y="129" text-anchor="middle" style="font-family:'Plus Jakarta Sans','Nunito',Arial,sans-serif;font-size:11.5px;font-weight:600;fill:#1a1f36">group</text><g transform="translate(240.5 156) scale(1)"><rect width="48" height="48" rx="5" fill="#8C4FFF"/><g fill="none" stroke="#fff" stroke-width="2" stroke-linecap="round" stroke-linejoin="round"><circle cx="24" cy="13" r="4.5"/><circle cx="11" cy="35" r="3.5"/><circle cx="24" cy="35" r="3.5"/><circle cx="37" cy="35" r="3.5"/><path d="M24 17.5V31.5M21.5 16.5L12.5 31.5M26.5 16.5L35.5 31.5"/></g></g><text x="264.5" y="223" text-anchor="middle" style="font-family:'Plus Jakarta Sans','Nunito',Arial,sans-serif;font-size:11.5px;font-weight:600;fill:#1a1f36">ALB</text><g transform="translate(240.5 250) scale(1)"><rect width="48" height="48" rx="5" fill="#C925D1"/><g fill="none" stroke="#fff" stroke-width="2" stroke-linecap="round" stroke-linejoin="round"><ellipse cx="24" cy="14" rx="12" ry="4.5"/><path d="M12 14V34C12 37 17 39 24 39S36 37 36 34V14M12 24C12 27 17 29 24 29S36 27 36 24"/></g></g><text x="264.5" y="317" text-anchor="middle" style="font-family:'Plus Jakarta Sans','Nunito',Arial,sans-serif;font-size:11.5px;font-weight:600;fill:#1a1f36">RDS primary (R/W)</text><rect x="452.9" y="41" width="144" height="270" rx="8" fill="none" stroke="#00A4A6" stroke-width="1.6" stroke-dasharray="6 4"/><g transform="translate(460.9 47) scale(0.4583333333333333)"><rect width="48" height="48" rx="5" fill="#00A4A6"/><g fill="none" stroke="#fff" stroke-width="2" stroke-linecap="round" stroke-linejoin="round"><path d="M24 40C24 40 12 28 12 20a12 12 0 0 1 24 0C36 28 24 40 24 40Z"/><circle cx="24" cy="20" r="4"/></g></g><text x="488.9" y="63" style="font-family:'Plus Jakarta Sans','Nunito',Arial,sans-serif;font-size:12.5px;font-weight:700;fill:#00A4A6">DR REGION</text><g transform="translate(500.9 75) scale(1)"><rect width="48" height="48" rx="5" fill="#C925D1"/><g fill="none" stroke="#fff" stroke-width="2" stroke-linecap="round" stroke-linejoin="round"><ellipse cx="24" cy="14" rx="12" ry="4.5"/><path d="M12 14V34C12 37 17 39 24 39S36 37 36 34V14M12 24C12 27 17 29 24 29S36 27 36 24"/></g></g><text x="524.9" y="142" text-anchor="middle" style="font-family:'Plus Jakarta Sans','Nunito',Arial,sans-serif;font-size:11.5px;font-weight:600;fill:#1a1f36">RDS read replica</text><text x="524.9" y="156" text-anchor="middle" style="font-family:'Plus Jakarta Sans','Nunito',Arial,sans-serif;font-size:11.5px;font-weight:600;fill:#1a1f36">(running)</text><text x="524.9" y="171" text-anchor="middle" style="font-family:'Plus Jakarta Sans','Nunito',Arial,sans-serif;font-size:10px;fill:#5f6881">minimal data</text><text x="524.9" y="184" text-anchor="middle" style="font-family:'Plus Jakarta Sans','Nunito',Arial,sans-serif;font-size:10px;fill:#5f6881">replication</text><g transform="translate(500.9 209) scale(1)"><rect width="48" height="48" rx="5" fill="#ED7100"/><g fill="none" stroke="#fff" stroke-width="2" stroke-linecap="round" stroke-linejoin="round"><rect x="15" y="15" width="18" height="18" rx="2"/><path d="M20 15V10M28 15V10M20 38V33M28 38V33M15 20H10M15 28H10M38 20H33M38 28H33"/></g></g><text x="524.9" y="276" text-anchor="middle" style="font-family:'Plus Jakarta Sans','Nunito',Arial,sans-serif;font-size:11.5px;font-weight:600;fill:#1a1f36">AMIs ready to</text><text x="524.9" y="290" text-anchor="middle" style="font-family:'Plus Jakarta Sans','Nunito',Arial,sans-serif;font-size:11.5px;font-weight:600;fill:#1a1f36">launch</text><rect x="145.5" y="358" width="492" height="116" rx="8" fill="#FFF7EE" stroke="#ED7100" stroke-width="1.6"/><text x="157.5" y="380" style="font-family:'Plus Jakarta Sans','Nunito',Arial,sans-serif;font-size:12.5px;font-weight:700;fill:#ED7100">ON DISASTER</text><text x="161.5" y="404" text-anchor="start" style="font-family:'Plus Jakarta Sans','Nunito',Arial,sans-serif;font-size:11.5px;font-weight:500;fill:#5f6881">1. Promote RDS read replica → primary</text><text x="161.5" y="419.5" text-anchor="start" style="font-family:'Plus Jakarta Sans','Nunito',Arial,sans-serif;font-size:11.5px;font-weight:500;fill:#5f6881">2. Launch EC2 instances from pre-existing AMIs</text><text x="161.5" y="435" text-anchor="start" style="font-family:'Plus Jakarta Sans','Nunito',Arial,sans-serif;font-size:11.5px;font-weight:500;fill:#5f6881">3. Update Route 53 to point to the DR ALB</text><text x="161.5" y="450.5" text-anchor="start" style="font-family:'Plus Jakarta Sans','Nunito',Arial,sans-serif;font-size:11.5px;font-weight:500;fill:#5f6881">4. Scale up the Auto Scaling group</text><rect x="14" y="502" width="186" height="32" rx="6" fill="#FFF3E8" stroke="#ED7100" stroke-width="1.5"/><text x="107" y="522" text-anchor="middle" style="font-family:'Plus Jakarta Sans','Nunito',Arial,sans-serif;font-size:12px;font-weight:500;fill:#1a1f36">RTO: 10 minutes – 1 hour</text><rect x="228" y="502" width="226" height="32" rx="6" fill="#FFF3E8" stroke="#ED7100" stroke-width="1.5"/><text x="341" y="522" text-anchor="middle" style="font-family:'Plus Jakarta Sans','Nunito',Arial,sans-serif;font-size:12px;font-weight:500;fill:#1a1f36">RPO: minutes (replication lag)</text><rect x="482" y="494" width="287" height="48" rx="6" fill="#EAF7EC" stroke="#2E8B2E" stroke-width="1.5"/><text x="625.5" y="514" text-anchor="middle" style="font-family:'Plus Jakarta Sans','Nunito',Arial,sans-serif;font-size:12px;font-weight:500;fill:#1a1f36">Cost: LOW (only DB replicas running, no</text><text x="625.5" y="530" text-anchor="middle" style="font-family:'Plus Jakarta Sans','Nunito',Arial,sans-serif;font-size:12px;font-weight:500;fill:#1a1f36">EC2)</text><path d="M342.9 176.0L452.9 176.0" fill="none" stroke="#5f6881" stroke-width="1.7" stroke-linejoin="round"/><path d="M452.9 176L444.9 171.5L444.9 180.5Z" fill="#5f6881"/><rect x="361.0" y="167.0" width="73.8" height="18" rx="4" fill="#fff" opacity=".94"/><text x="397.9" y="178.0" text-anchor="middle" style="font-family:'Plus Jakarta Sans','Nunito',Arial,sans-serif;font-size:10.5px;font-weight:600;fill:#3c4660">replication</text></svg>
