<svg xmlns="http://www.w3.org/2000/svg" viewBox="0 0 547 599" width="547" height="599" role="img" aria-label="Lambda concurrency scaling"><rect width="547" height="599" rx="12" fill="#ffffff"/><rect x="55.5" y="14" width="436" height="377" rx="8" fill="none" stroke="#232F3E" stroke-width="1.6"/><g transform="translate(63.5 20) scale(0.4583333333333333)"><rect width="48" height="48" rx="5" fill="#232F3E"/><g fill="none" stroke="#fff" stroke-width="2" stroke-linecap="round" stroke-linejoin="round"><path d="M15 35H34A7.5 7.5 0 0 0 33 20A10 10 0 0 0 15 22A6.5 6.5 0 0 0 15 35Z"/></g></g><text x="91.5" y="36" style="font-family:'Plus Jakarta Sans','Nunito',Arial,sans-serif;font-size:12.5px;font-weight:700;fill:#232F3E">Lambda concurrency scaling</text><rect x="93.5" y="74.5" width="96" height="32" rx="6" fill="#fff" stroke="#9AA5B5" stroke-width="1.5"/><text x="141.5" y="94.5" text-anchor="middle" style="font-family:'Plus Jakarta Sans','Nunito',Arial,sans-serif;font-size:12px;font-weight:500;fill:#1a1f36">Request 1</text><g transform="translate(249.5 48) scale(1)"><rect width="48" height="48" rx="5" fill="#ED7100"/><g fill="none" stroke="#fff" stroke-width="2" stroke-linecap="round" stroke-linejoin="round"><path d="M16 11L32 37M24 24L15 37"/></g></g><text x="273.5" y="115" text-anchor="middle" style="font-family:'Plus Jakarta Sans','Nunito',Arial,sans-serif;font-size:11.5px;font-weight:600;fill:#1a1f36">Execution env 1</text><text x="273.5" y="130" text-anchor="middle" style="font-family:'Plus Jakarta Sans','Nunito',Arial,sans-serif;font-size:10px;fill:#5f6881">warm</text><rect x="357.5" y="74.5" width="96" height="32" rx="6" fill="#EAF7EC" stroke="#2E8B2E" stroke-width="1.5"/><text x="405.5" y="94.5" text-anchor="middle" style="font-family:'Plus Jakarta Sans','Nunito',Arial,sans-serif;font-size:12px;font-weight:500;fill:#1a1f36">Response</text><rect x="93.5" y="167.5" width="96" height="32" rx="6" fill="#fff" stroke="#9AA5B5" stroke-width="1.5"/><text x="141.5" y="187.5" text-anchor="middle" style="font-family:'Plus Jakarta Sans','Nunito',Arial,sans-serif;font-size:12px;font-weight:500;fill:#1a1f36">Request 2</text><g transform="translate(249.5 141) scale(1)"><rect width="48" height="48" rx="5" fill="#ED7100"/><g fill="none" stroke="#fff" stroke-width="2" stroke-linecap="round" stroke-linejoin="round"><path d="M16 11L32 37M24 24L15 37"/></g></g><text x="273.5" y="208" text-anchor="middle" style="font-family:'Plus Jakarta Sans','Nunito',Arial,sans-serif;font-size:11.5px;font-weight:600;fill:#1a1f36">Execution env 2</text><text x="273.5" y="223" text-anchor="middle" style="font-family:'Plus Jakarta Sans','Nunito',Arial,sans-serif;font-size:10px;fill:#5f6881">warm</text><rect x="357.5" y="167.5" width="96" height="32" rx="6" fill="#EAF7EC" stroke="#2E8B2E" stroke-width="1.5"/><text x="405.5" y="187.5" text-anchor="middle" style="font-family:'Plus Jakarta Sans','Nunito',Arial,sans-serif;font-size:12px;font-weight:500;fill:#1a1f36">Response</text><rect x="93.5" y="260.5" width="96" height="32" rx="6" fill="#fff" stroke="#9AA5B5" stroke-width="1.5"/><text x="141.5" y="280.5" text-anchor="middle" style="font-family:'Plus Jakarta Sans','Nunito',Arial,sans-serif;font-size:12px;font-weight:500;fill:#1a1f36">Request 3</text><g transform="translate(249.5 234) scale(1)"><rect width="48" height="48" rx="5" fill="#ED7100"/><g fill="none" stroke="#fff" stroke-width="2" stroke-linecap="round" stroke-linejoin="round"><path d="M16 11L32 37M24 24L15 37"/></g></g><text x="273.5" y="301" text-anchor="middle" style="font-family:'Plus Jakarta Sans','Nunito',Arial,sans-serif;font-size:11.5px;font-weight:600;fill:#1a1f36">Execution env 3</text><text x="273.5" y="316" text-anchor="middle" style="font-family:'Plus Jakarta Sans','Nunito',Arial,sans-serif;font-size:10px;fill:#5f6881">new: cold start</text><rect x="357.5" y="260.5" width="96" height="32" rx="6" fill="#EAF7EC" stroke="#2E8B2E" stroke-width="1.5"/><text x="405.5" y="280.5" text-anchor="middle" style="font-family:'Plus Jakarta Sans','Nunito',Arial,sans-serif;font-size:12px;font-weight:500;fill:#1a1f36">Response</text><rect x="71.5" y="335" width="96" height="32" rx="6" fill="#fff" stroke="#9AA5B5" stroke-width="1.5"/><text x="119.5" y="355" text-anchor="middle" style="font-family:'Plus Jakarta Sans','Nunito',Arial,sans-serif;font-size:12px;font-weight:500;fill:#1a1f36">Request N</text><rect x="195.5" y="327" width="280" height="48" rx="6" fill="#FFF0F0" stroke="#D13212" stroke-width="1.5"/><text x="335.5" y="347" text-anchor="middle" style="font-family:'Plus Jakarta Sans','Nunito',Arial,sans-serif;font-size:12px;font-weight:500;fill:#1a1f36">Throttled (429) if above the concurrency</text><text x="335.5" y="363" text-anchor="middle" style="font-family:'Plus Jakarta Sans','Nunito',Arial,sans-serif;font-size:12px;font-weight:500;fill:#1a1f36">limit</text><rect x="54.5" y="419" width="98" height="32" rx="6" fill="#EEF3FF" stroke="#2f5be0" stroke-width="1.5"/><text x="103.5" y="439" text-anchor="middle" style="font-family:'Plus Jakarta Sans','Nunito',Arial,sans-serif;font-size:12px;font-weight:700;fill:#1a1f36">Burst limit</text><rect x="203" y="411" width="330" height="48" rx="6" fill="#fff" stroke="#9AA5B5" stroke-width="1.5"/><text x="368" y="431" text-anchor="middle" style="font-family:'Plus Jakarta Sans','Nunito',Arial,sans-serif;font-size:12px;font-weight:500;fill:#1a1f36">3,000 concurrent initially, then +500/minute until</text><text x="368" y="447" text-anchor="middle" style="font-family:'Plus Jakarta Sans','Nunito',Arial,sans-serif;font-size:12px;font-weight:500;fill:#1a1f36">account limit</text><rect x="47.5" y="469" width="112" height="32" rx="6" fill="#EEF3FF" stroke="#2f5be0" stroke-width="1.5"/><text x="103.5" y="489" text-anchor="middle" style="font-family:'Plus Jakarta Sans','Nunito',Arial,sans-serif;font-size:12px;font-weight:700;fill:#1a1f36">Account limit</text><rect x="203" y="469" width="330" height="32" rx="6" fill="#fff" stroke="#9AA5B5" stroke-width="1.5"/><text x="368" y="489" text-anchor="middle" style="font-family:'Plus Jakarta Sans','Nunito',Arial,sans-serif;font-size:12px;font-weight:500;fill:#1a1f36">1,000 concurrent (default, Region-wide)</text><rect x="24" y="511" width="159" height="32" rx="6" fill="#EEF3FF" stroke="#2f5be0" stroke-width="1.5"/><text x="103.5" y="531" text-anchor="middle" style="font-family:'Plus Jakarta Sans','Nunito',Arial,sans-serif;font-size:12px;font-weight:700;fill:#1a1f36">Reserved concurrency</text><rect x="203" y="511" width="330" height="32" rx="6" fill="#fff" stroke="#9AA5B5" stroke-width="1.5"/><text x="368" y="531" text-anchor="middle" style="font-family:'Plus Jakarta Sans','Nunito',Arial,sans-serif;font-size:12px;font-weight:500;fill:#1a1f36">Set aside N for this function</text><rect x="14" y="553" width="179" height="32" rx="6" fill="#EEF3FF" stroke="#2f5be0" stroke-width="1.5"/><text x="103.5" y="573" text-anchor="middle" style="font-family:'Plus Jakarta Sans','Nunito',Arial,sans-serif;font-size:12px;font-weight:700;fill:#1a1f36">Provisioned concurrency</text><rect x="203" y="553" width="330" height="32" rx="6" fill="#fff" stroke="#9AA5B5" stroke-width="1.5"/><text x="368" y="573" text-anchor="middle" style="font-family:'Plus Jakarta Sans','Nunito',Arial,sans-serif;font-size:12px;font-weight:500;fill:#1a1f36">N pre-warmed environments always ready</text><path d="M189.5 90.5L219.5 90.5L219.5 72.0L249.5 72.0" fill="none" stroke="#5f6881" stroke-width="1.7" stroke-linejoin="round"/><path d="M249.5 72L241.5 67.5L241.5 76.5Z" fill="#5f6881"/><path d="M297.5 72.0L327.5 72.0L327.5 90.5L357.5 90.5" fill="none" stroke="#5f6881" stroke-width="1.7" stroke-linejoin="round"/><path d="M357.5 90.5L349.5 86L349.5 95Z" fill="#5f6881"/><path d="M189.5 183.5L219.5 183.5L219.5 165.0L249.5 165.0" fill="none" stroke="#5f6881" stroke-width="1.7" stroke-linejoin="round"/><path d="M249.5 165L241.5 160.5L241.5 169.5Z" fill="#5f6881"/><path d="M297.5 165.0L327.5 165.0L327.5 183.5L357.5 183.5" fill="none" stroke="#5f6881" stroke-width="1.7" stroke-linejoin="round"/><path d="M357.5 183.5L349.5 179L349.5 188Z" fill="#5f6881"/><path d="M189.5 276.5L219.5 276.5L219.5 258.0L249.5 258.0" fill="none" stroke="#5f6881" stroke-width="1.7" stroke-linejoin="round"/><path d="M249.5 258L241.5 253.5L241.5 262.5Z" fill="#5f6881"/><path d="M297.5 258.0L327.5 258.0L327.5 276.5L357.5 276.5" fill="none" stroke="#5f6881" stroke-width="1.7" stroke-linejoin="round"/><path d="M357.5 276.5L349.5 272L349.5 281Z" fill="#5f6881"/><path d="M167.5 351.0L195.5 351.0" fill="none" stroke="#5f6881" stroke-width="1.7" stroke-linejoin="round"/><path d="M195.5 351L187.5 346.5L187.5 355.5Z" fill="#5f6881"/></svg>
