<svg xmlns="http://www.w3.org/2000/svg" viewBox="0 0 588 403" width="588" height="403" role="img" aria-label="Redshift architecture"><rect width="588" height="403" rx="12" fill="#ffffff"/><rect x="14" y="14" width="560" height="375" rx="8" fill="none" stroke="#8C4FFF" stroke-width="1.6"/><g transform="translate(22 20) scale(0.4583333333333333)"><rect width="48" height="48" rx="5" fill="#8C4FFF"/><g fill="none" stroke="#fff" stroke-width="2" stroke-linecap="round" stroke-linejoin="round"><path d="M15 35H34A7.5 7.5 0 0 0 33 20A10 10 0 0 0 15 22A6.5 6.5 0 0 0 15 35Z"/></g></g><text x="50" y="36" style="font-family:'Plus Jakarta Sans','Nunito',Arial,sans-serif;font-size:12.5px;font-weight:700;fill:#8C4FFF">REDSHIFT CLUSTER</text><g transform="translate(270 48) scale(1)"><rect width="48" height="48" rx="5" fill="#8C4FFF"/><g fill="none" stroke="#fff" stroke-width="2" stroke-linecap="round" stroke-linejoin="round"><ellipse cx="24" cy="14" rx="12" ry="4.5"/><path d="M12 14V34C12 37 17 39 24 39S36 37 36 34V14M12 24C12 27 17 29 24 29S36 27 36 24"/></g></g><text x="294" y="115" text-anchor="middle" style="font-family:'Plus Jakarta Sans','Nunito',Arial,sans-serif;font-size:11.5px;font-weight:600;fill:#1a1f36">Leader node</text><text x="294" y="130" text-anchor="middle" style="font-family:'Plus Jakarta Sans','Nunito',Arial,sans-serif;font-size:10px;fill:#5f6881">query planning,</text><text x="294" y="143" text-anchor="middle" style="font-family:'Plus Jakarta Sans','Nunito',Arial,sans-serif;font-size:10px;fill:#5f6881">client connection</text><rect x="88" y="168" width="412" height="135" rx="8" fill="#F4F7FF" stroke="#2f5be0" stroke-width="1.6"/><text x="100" y="190" style="font-family:'Plus Jakarta Sans','Nunito',Arial,sans-serif;font-size:12.5px;font-weight:700;fill:#2f5be0">Compute nodes (1–128)</text><g transform="translate(136 202) scale(1)"><rect width="48" height="48" rx="5" fill="#8C4FFF"/><g fill="none" stroke="#fff" stroke-width="2" stroke-linecap="round" stroke-linejoin="round"><ellipse cx="24" cy="14" rx="12" ry="4.5"/><path d="M12 14V34C12 37 17 39 24 39S36 37 36 34V14M12 24C12 27 17 29 24 29S36 27 36 24"/></g></g><text x="160" y="269" text-anchor="middle" style="font-family:'Plus Jakarta Sans','Nunito',Arial,sans-serif;font-size:11.5px;font-weight:600;fill:#1a1f36">Node 1</text><text x="160" y="284" text-anchor="middle" style="font-family:'Plus Jakarta Sans','Nunito',Arial,sans-serif;font-size:10px;fill:#5f6881">Slice 1</text><g transform="translate(270 202) scale(1)"><rect width="48" height="48" rx="5" fill="#8C4FFF"/><g fill="none" stroke="#fff" stroke-width="2" stroke-linecap="round" stroke-linejoin="round"><ellipse cx="24" cy="14" rx="12" ry="4.5"/><path d="M12 14V34C12 37 17 39 24 39S36 37 36 34V14M12 24C12 27 17 29 24 29S36 27 36 24"/></g></g><text x="294" y="269" text-anchor="middle" style="font-family:'Plus Jakarta Sans','Nunito',Arial,sans-serif;font-size:11.5px;font-weight:600;fill:#1a1f36">Node 2</text><text x="294" y="284" text-anchor="middle" style="font-family:'Plus Jakarta Sans','Nunito',Arial,sans-serif;font-size:10px;fill:#5f6881">Slice 2</text><g transform="translate(404 202) scale(1)"><rect width="48" height="48" rx="5" fill="#8C4FFF"/><g fill="none" stroke="#fff" stroke-width="2" stroke-linecap="round" stroke-linejoin="round"><ellipse cx="24" cy="14" rx="12" ry="4.5"/><path d="M12 14V34C12 37 17 39 24 39S36 37 36 34V14M12 24C12 27 17 29 24 29S36 27 36 24"/></g></g><text x="428" y="269" text-anchor="middle" style="font-family:'Plus Jakarta Sans','Nunito',Arial,sans-serif;font-size:11.5px;font-weight:600;fill:#1a1f36">Node 3</text><text x="428" y="284" text-anchor="middle" style="font-family:'Plus Jakarta Sans','Nunito',Arial,sans-serif;font-size:10px;fill:#5f6881">Slice 3</text><rect x="30" y="325" width="250" height="48" rx="6" fill="#EEF3FF" stroke="#2f5be0" stroke-width="1.5"/><text x="155" y="345" text-anchor="middle" style="font-family:'Plus Jakarta Sans','Nunito',Arial,sans-serif;font-size:12px;font-weight:500;fill:#1a1f36">Redshift Spectrum: query S3 data lake</text><text x="155" y="361" text-anchor="middle" style="font-family:'Plus Jakarta Sans','Nunito',Arial,sans-serif;font-size:12px;font-weight:500;fill:#1a1f36">without loading</text><rect x="308" y="325" width="250" height="48" rx="6" fill="#EEF3FF" stroke="#2f5be0" stroke-width="1.5"/><text x="433" y="345" text-anchor="middle" style="font-family:'Plus Jakarta Sans','Nunito',Arial,sans-serif;font-size:12px;font-weight:500;fill:#1a1f36">RA3 nodes: managed storage (S3),</text><text x="433" y="361" text-anchor="middle" style="font-family:'Plus Jakarta Sans','Nunito',Arial,sans-serif;font-size:12px;font-weight:500;fill:#1a1f36">compute separate</text><path d="M294.0 144.0L294.0 168.0" fill="none" stroke="#5f6881" stroke-width="1.7" stroke-linejoin="round"/><path d="M294 168L289.5 160L298.5 160Z" fill="#5f6881"/><rect x="219.4" y="147.0" width="149.2" height="18" rx="4" fill="#fff" opacity=".94"/><text x="294.0" y="158.0" text-anchor="middle" style="font-family:'Plus Jakarta Sans','Nunito',Arial,sans-serif;font-size:10.5px;font-weight:600;fill:#3c4660">distributes query slices</text></svg>
