<svg xmlns="http://www.w3.org/2000/svg" viewBox="0 0 598 223" width="598" height="223" role="img" aria-label="IAM architecture"><rect width="598" height="223" rx="12" fill="#ffffff"/><g transform="translate(46 27) scale(1)"><rect width="48" height="48" rx="5" fill="#DD344C"/><g fill="none" stroke="#fff" stroke-width="2" stroke-linecap="round" stroke-linejoin="round"><circle cx="24" cy="16" r="6.5"/><path d="M11 38C11 27 37 27 37 38"/></g></g><text x="70" y="94" text-anchor="middle" style="font-family:'Plus Jakarta Sans','Nunito',Arial,sans-serif;font-size:11.5px;font-weight:600;fill:#1a1f36">IAM user</text><text x="70" y="109" text-anchor="middle" style="font-family:'Plus Jakarta Sans','Nunito',Arial,sans-serif;font-size:10px;fill:#5f6881">Long-term keys</text><g transform="translate(186 20.5) scale(1)"><rect width="48" height="48" rx="5" fill="#DD344C"/><g fill="none" stroke="#fff" stroke-width="2" stroke-linecap="round" stroke-linejoin="round"><circle cx="18" cy="17" r="5"/><path d="M8 36C8 28 28 28 28 36"/><circle cx="32" cy="19" r="4.5"/><path d="M30 29C36 27 41 30 41 36"/></g></g><text x="210" y="87.5" text-anchor="middle" style="font-family:'Plus Jakarta Sans','Nunito',Arial,sans-serif;font-size:11.5px;font-weight:600;fill:#1a1f36">IAM group</text><text x="210" y="102.5" text-anchor="middle" style="font-family:'Plus Jakarta Sans','Nunito',Arial,sans-serif;font-size:10px;fill:#5f6881">Users inherit group</text><text x="210" y="115.5" text-anchor="middle" style="font-family:'Plus Jakarta Sans','Nunito',Arial,sans-serif;font-size:10px;fill:#5f6881">policy</text><g transform="translate(326 14) scale(1)"><rect width="48" height="48" rx="5" fill="#DD344C"/><g fill="none" stroke="#fff" stroke-width="2" stroke-linecap="round" stroke-linejoin="round"><circle cx="24" cy="16" r="6.5"/><path d="M11 38C11 27 37 27 37 38"/></g></g><text x="350" y="81" text-anchor="middle" style="font-family:'Plus Jakarta Sans','Nunito',Arial,sans-serif;font-size:11.5px;font-weight:600;fill:#1a1f36">IAM role</text><text x="350" y="96" text-anchor="middle" style="font-family:'Plus Jakarta Sans','Nunito',Arial,sans-serif;font-size:10px;fill:#5f6881">Assumed by EC2,</text><text x="350" y="109" text-anchor="middle" style="font-family:'Plus Jakarta Sans','Nunito',Arial,sans-serif;font-size:10px;fill:#5f6881">Lambda, ECS task,</text><text x="350" y="122" text-anchor="middle" style="font-family:'Plus Jakarta Sans','Nunito',Arial,sans-serif;font-size:10px;fill:#5f6881">cross-account</text><g transform="translate(485 14) scale(1)"><rect width="48" height="48" rx="5" fill="#DD344C"/><g fill="none" stroke="#fff" stroke-width="2" stroke-linecap="round" stroke-linejoin="round"><path d="M15 9H29L35 15V39H15Z"/><path d="M20 22H30M20 28H30M20 34H26"/></g></g><text x="509" y="81" text-anchor="middle" style="font-family:'Plus Jakarta Sans','Nunito',Arial,sans-serif;font-size:11.5px;font-weight:600;fill:#1a1f36">IAM policy</text><text x="509" y="96" text-anchor="middle" style="font-family:'Plus Jakarta Sans','Nunito',Arial,sans-serif;font-size:10px;fill:#5f6881">Allow / deny action</text><text x="509" y="109" text-anchor="middle" style="font-family:'Plus Jakarta Sans','Nunito',Arial,sans-serif;font-size:10px;fill:#5f6881">on resource with</text><text x="509" y="122" text-anchor="middle" style="font-family:'Plus Jakarta Sans','Nunito',Arial,sans-serif;font-size:10px;fill:#5f6881">condition</text><rect x="166" y="145" width="266" height="64" rx="6" fill="#232F3E" stroke="#232F3E" stroke-width="1.5"/><text x="299" y="165" text-anchor="middle" style="font-family:'Plus Jakarta Sans','Nunito',Arial,sans-serif;font-size:12px;font-weight:700;fill:#fff">Effective permissions = union of all</text><text x="299" y="181" text-anchor="middle" style="font-family:'Plus Jakarta Sans','Nunito',Arial,sans-serif;font-size:12px;font-weight:700;fill:#fff">attached policies MINUS any explicit</text><text x="299" y="197" text-anchor="middle" style="font-family:'Plus Jakarta Sans','Nunito',Arial,sans-serif;font-size:12px;font-weight:700;fill:#fff">Deny</text><path d="M70.0 110.0L70.0 127.5L299.0 127.5L299.0 145.0" fill="none" stroke="#5f6881" stroke-width="1.7" stroke-linejoin="round"/><path d="M299 145L294.5 137L303.5 137Z" fill="#5f6881"/><path d="M210.0 116.5L210.0 130.8L299.0 130.8L299.0 145.0" fill="none" stroke="#5f6881" stroke-width="1.7" stroke-linejoin="round"/><path d="M299 145L294.5 137L303.5 137Z" fill="#5f6881"/><path d="M350.0 123.0L350.0 134.0L299.0 134.0L299.0 145.0" fill="none" stroke="#5f6881" stroke-width="1.7" stroke-linejoin="round"/><path d="M299 145L294.5 137L303.5 137Z" fill="#5f6881"/><path d="M509.0 123.0L509.0 134.0L299.0 134.0L299.0 145.0" fill="none" stroke="#5f6881" stroke-width="1.7" stroke-linejoin="round"/><path d="M299 145L294.5 137L303.5 137Z" fill="#5f6881"/></svg>
