<svg xmlns="http://www.w3.org/2000/svg" viewBox="0 0 516 417" width="516" height="417" role="img" aria-label="AWS Organizations structure"><rect width="516" height="417" rx="12" fill="#ffffff"/><g transform="translate(234 14) scale(1)"><rect width="48" height="48" rx="5" fill="#E7157B"/><g fill="none" stroke="#fff" stroke-width="2" stroke-linecap="round" stroke-linejoin="round"><rect x="18" y="9" width="12" height="9"/><rect x="8" y="30" width="12" height="9"/><rect x="28" y="30" width="12" height="9"/><path d="M24 18V24M14 30V24H34V30"/></g></g><text x="258" y="81" text-anchor="middle" style="font-family:'Plus Jakarta Sans','Nunito',Arial,sans-serif;font-size:11.5px;font-weight:600;fill:#1a1f36">Management</text><text x="258" y="95" text-anchor="middle" style="font-family:'Plus Jakarta Sans','Nunito',Arial,sans-serif;font-size:11.5px;font-weight:600;fill:#1a1f36">account (root)</text><text x="258" y="110" text-anchor="middle" style="font-family:'Plus Jakarta Sans','Nunito',Arial,sans-serif;font-size:10px;fill:#5f6881">Pays all bills.</text><text x="258" y="123" text-anchor="middle" style="font-family:'Plus Jakarta Sans','Nunito',Arial,sans-serif;font-size:10px;fill:#5f6881">Formerly "master</text><text x="258" y="136" text-anchor="middle" style="font-family:'Plus Jakarta Sans','Nunito',Arial,sans-serif;font-size:10px;fill:#5f6881">account"</text><rect x="14" y="159" width="144" height="244" rx="8" fill="none" stroke="#E7157B" stroke-width="1.6" stroke-dasharray="6 4"/><g transform="translate(22 165) scale(0.4583333333333333)"><rect width="48" height="48" rx="5" fill="#E7157B"/><g fill="none" stroke="#fff" stroke-width="2" stroke-linecap="round" stroke-linejoin="round"><rect x="18" y="9" width="12" height="9"/><rect x="8" y="30" width="12" height="9"/><rect x="28" y="30" width="12" height="9"/><path d="M24 18V24M14 30V24H34V30"/></g></g><text x="50" y="181" style="font-family:'Plus Jakarta Sans','Nunito',Arial,sans-serif;font-size:12.5px;font-weight:700;fill:#E7157B">OU: Security</text><g transform="translate(62 193) scale(1)"><rect width="48" height="48" rx="5" fill="#E7157B"/><g fill="none" stroke="#fff" stroke-width="2" stroke-linecap="round" stroke-linejoin="round"><rect x="8" y="14" width="32" height="22" rx="2"/><path d="M8 21H40M13 29H20"/></g></g><text x="86" y="260" text-anchor="middle" style="font-family:'Plus Jakarta Sans','Nunito',Arial,sans-serif;font-size:11.5px;font-weight:600;fill:#1a1f36">Log Archive</text><text x="86" y="274" text-anchor="middle" style="font-family:'Plus Jakarta Sans','Nunito',Arial,sans-serif;font-size:11.5px;font-weight:600;fill:#1a1f36">account</text><g transform="translate(62 301) scale(1)"><rect width="48" height="48" rx="5" fill="#E7157B"/><g fill="none" stroke="#fff" stroke-width="2" stroke-linecap="round" stroke-linejoin="round"><rect x="8" y="14" width="32" height="22" rx="2"/><path d="M8 21H40M13 29H20"/></g></g><text x="86" y="368" text-anchor="middle" style="font-family:'Plus Jakarta Sans','Nunito',Arial,sans-serif;font-size:11.5px;font-weight:600;fill:#1a1f36">Security Tooling</text><text x="86" y="382" text-anchor="middle" style="font-family:'Plus Jakarta Sans','Nunito',Arial,sans-serif;font-size:11.5px;font-weight:600;fill:#1a1f36">account</text><rect x="186" y="159" width="144" height="122" rx="8" fill="none" stroke="#E7157B" stroke-width="1.6" stroke-dasharray="6 4"/><g transform="translate(194 165) scale(0.4583333333333333)"><rect width="48" height="48" rx="5" fill="#E7157B"/><g fill="none" stroke="#fff" stroke-width="2" stroke-linecap="round" stroke-linejoin="round"><rect x="18" y="9" width="12" height="9"/><rect x="8" y="30" width="12" height="9"/><rect x="28" y="30" width="12" height="9"/><path d="M24 18V24M14 30V24H34V30"/></g></g><text x="222" y="181" style="font-family:'Plus Jakarta Sans','Nunito',Arial,sans-serif;font-size:12.5px;font-weight:700;fill:#E7157B">OU: Prod</text><g transform="translate(234 193) scale(1)"><rect width="48" height="48" rx="5" fill="#E7157B"/><g fill="none" stroke="#fff" stroke-width="2" stroke-linecap="round" stroke-linejoin="round"><rect x="8" y="14" width="32" height="22" rx="2"/><path d="M8 21H40M13 29H20"/></g></g><text x="258" y="260" text-anchor="middle" style="font-family:'Plus Jakarta Sans','Nunito',Arial,sans-serif;font-size:11.5px;font-weight:600;fill:#1a1f36">App Prod account</text><rect x="358" y="159" width="144" height="122" rx="8" fill="none" stroke="#E7157B" stroke-width="1.6" stroke-dasharray="6 4"/><g transform="translate(366 165) scale(0.4583333333333333)"><rect width="48" height="48" rx="5" fill="#E7157B"/><g fill="none" stroke="#fff" stroke-width="2" stroke-linecap="round" stroke-linejoin="round"><rect x="18" y="9" width="12" height="9"/><rect x="8" y="30" width="12" height="9"/><rect x="28" y="30" width="12" height="9"/><path d="M24 18V24M14 30V24H34V30"/></g></g><text x="394" y="181" style="font-family:'Plus Jakarta Sans','Nunito',Arial,sans-serif;font-size:12.5px;font-weight:700;fill:#E7157B">OU: Dev</text><g transform="translate(406 193) scale(1)"><rect width="48" height="48" rx="5" fill="#E7157B"/><g fill="none" stroke="#fff" stroke-width="2" stroke-linecap="round" stroke-linejoin="round"><rect x="8" y="14" width="32" height="22" rx="2"/><path d="M8 21H40M13 29H20"/></g></g><text x="430" y="260" text-anchor="middle" style="font-family:'Plus Jakarta Sans','Nunito',Arial,sans-serif;font-size:11.5px;font-weight:600;fill:#1a1f36">App Dev account</text><path d="M258.0 137.0L258.0 148.0L86.0 148.0L86.0 159.0" fill="none" stroke="#5f6881" stroke-width="1.7" stroke-linejoin="round"/><path d="M86 159L81.5 151L90.5 151Z" fill="#5f6881"/><path d="M258.0 137.0L258.0 159.0" fill="none" stroke="#5f6881" stroke-width="1.7" stroke-linejoin="round"/><path d="M258 159L253.5 151L262.5 151Z" fill="#5f6881"/><path d="M258.0 137.0L258.0 148.0L430.0 148.0L430.0 159.0" fill="none" stroke="#5f6881" stroke-width="1.7" stroke-linejoin="round"/><path d="M430 159L425.5 151L434.5 151Z" fill="#5f6881"/></svg>
