<svg xmlns="http://www.w3.org/2000/svg" viewBox="0 0 803 593" width="803" height="593" role="img" aria-label="Warm standby DR strategy"><rect width="803" height="593" rx="12" fill="#ffffff"/><rect x="196.1" y="40.5" width="156.8" height="323" rx="8" fill="none" stroke="#00A4A6" stroke-width="1.6" stroke-dasharray="6 4"/><g transform="translate(204.1 46.5) scale(0.4583333333333333)"><rect width="48" height="48" rx="5" fill="#00A4A6"/><g fill="none" stroke="#fff" stroke-width="2" stroke-linecap="round" stroke-linejoin="round"><path d="M24 40C24 40 12 28 12 20a12 12 0 0 1 24 0C36 28 24 40 24 40Z"/><circle cx="24" cy="20" r="4"/></g></g><text x="232.1" y="62.5" style="font-family:'Plus Jakarta Sans','Nunito',Arial,sans-serif;font-size:12.5px;font-weight:700;fill:#00A4A6">PRIMARY REGION</text><g transform="translate(250.5 74.5) scale(1)"><rect width="48" height="48" rx="5" fill="#ED7100"/><g fill="none" stroke="#fff" stroke-width="2" stroke-linecap="round" stroke-linejoin="round"><rect x="15" y="15" width="18" height="18" rx="2"/><path d="M20 15V10M28 15V10M20 38V33M28 38V33M15 20H10M15 28H10M38 20H33M38 28H33"/></g></g><text x="274.5" y="141.5" text-anchor="middle" style="font-family:'Plus Jakarta Sans','Nunito',Arial,sans-serif;font-size:11.5px;font-weight:600;fill:#1a1f36">EC2: 10 instances</text><g transform="translate(250.5 168.5) scale(1)"><rect width="48" height="48" rx="5" fill="#8C4FFF"/><g fill="none" stroke="#fff" stroke-width="2" stroke-linecap="round" stroke-linejoin="round"><circle cx="24" cy="13" r="4.5"/><circle cx="11" cy="35" r="3.5"/><circle cx="24" cy="35" r="3.5"/><circle cx="37" cy="35" r="3.5"/><path d="M24 17.5V31.5M21.5 16.5L12.5 31.5M26.5 16.5L35.5 31.5"/></g></g><text x="274.5" y="235.5" text-anchor="middle" style="font-family:'Plus Jakarta Sans','Nunito',Arial,sans-serif;font-size:11.5px;font-weight:600;fill:#1a1f36">ALB (active)</text><g transform="translate(250.5 262.5) scale(1)"><rect width="48" height="48" rx="5" fill="#C925D1"/><g fill="none" stroke="#fff" stroke-width="2" stroke-linecap="round" stroke-linejoin="round"><ellipse cx="24" cy="14" rx="12" ry="4.5"/><path d="M12 14V34C12 37 17 39 24 39S36 37 36 34V14M12 24C12 27 17 29 24 29S36 27 36 24"/></g></g><text x="274.5" y="329.5" text-anchor="middle" style="font-family:'Plus Jakarta Sans','Nunito',Arial,sans-serif;font-size:11.5px;font-weight:600;fill:#1a1f36">RDS primary</text><text x="274.5" y="344.5" text-anchor="middle" style="font-family:'Plus Jakarta Sans','Nunito',Arial,sans-serif;font-size:10px;fill:#5f6881">full traffic</text><rect x="462.9" y="14" width="144" height="376" rx="8" fill="none" stroke="#00A4A6" stroke-width="1.6" stroke-dasharray="6 4"/><g transform="translate(470.9 20) scale(0.4583333333333333)"><rect width="48" height="48" rx="5" fill="#00A4A6"/><g fill="none" stroke="#fff" stroke-width="2" stroke-linecap="round" stroke-linejoin="round"><path d="M24 40C24 40 12 28 12 20a12 12 0 0 1 24 0C36 28 24 40 24 40Z"/><circle cx="24" cy="20" r="4"/></g></g><text x="498.9" y="36" style="font-family:'Plus Jakarta Sans','Nunito',Arial,sans-serif;font-size:12.5px;font-weight:700;fill:#00A4A6">DR REGION</text><g transform="translate(510.9 48) scale(1)"><rect width="48" height="48" rx="5" fill="#ED7100"/><g fill="none" stroke="#fff" stroke-width="2" stroke-linecap="round" stroke-linejoin="round"><rect x="15" y="15" width="18" height="18" rx="2"/><path d="M20 15V10M28 15V10M20 38V33M28 38V33M15 20H10M15 28H10M38 20H33M38 28H33"/></g></g><text x="534.9" y="115" text-anchor="middle" style="font-family:'Plus Jakarta Sans','Nunito',Arial,sans-serif;font-size:11.5px;font-weight:600;fill:#1a1f36">EC2: 2 instances</text><text x="534.9" y="130" text-anchor="middle" style="font-family:'Plus Jakarta Sans','Nunito',Arial,sans-serif;font-size:10px;fill:#5f6881">scaled down</text><g transform="translate(510.9 155) scale(1)"><rect width="48" height="48" rx="5" fill="#8C4FFF"/><g fill="none" stroke="#fff" stroke-width="2" stroke-linecap="round" stroke-linejoin="round"><circle cx="24" cy="13" r="4.5"/><circle cx="11" cy="35" r="3.5"/><circle cx="24" cy="35" r="3.5"/><circle cx="37" cy="35" r="3.5"/><path d="M24 17.5V31.5M21.5 16.5L12.5 31.5M26.5 16.5L35.5 31.5"/></g></g><text x="534.9" y="222" text-anchor="middle" style="font-family:'Plus Jakarta Sans','Nunito',Arial,sans-serif;font-size:11.5px;font-weight:600;fill:#1a1f36">ALB (running)</text><text x="534.9" y="237" text-anchor="middle" style="font-family:'Plus Jakarta Sans','Nunito',Arial,sans-serif;font-size:10px;fill:#5f6881">receives no load</text><g transform="translate(510.9 262) scale(1)"><rect width="48" height="48" rx="5" fill="#C925D1"/><g fill="none" stroke="#fff" stroke-width="2" stroke-linecap="round" stroke-linejoin="round"><ellipse cx="24" cy="14" rx="12" ry="4.5"/><path d="M12 14V34C12 37 17 39 24 39S36 37 36 34V14M12 24C12 27 17 29 24 29S36 27 36 24"/></g></g><text x="534.9" y="329" text-anchor="middle" style="font-family:'Plus Jakarta Sans','Nunito',Arial,sans-serif;font-size:11.5px;font-weight:600;fill:#1a1f36">RDS read replica</text><text x="534.9" y="343" text-anchor="middle" style="font-family:'Plus Jakarta Sans','Nunito',Arial,sans-serif;font-size:11.5px;font-weight:600;fill:#1a1f36">(running)</text><text x="534.9" y="358" text-anchor="middle" style="font-family:'Plus Jakarta Sans','Nunito',Arial,sans-serif;font-size:10px;fill:#5f6881">serving reduced test</text><text x="534.9" y="371" text-anchor="middle" style="font-family:'Plus Jakarta Sans','Nunito',Arial,sans-serif;font-size:10px;fill:#5f6881">traffic</text><rect x="155.5" y="410" width="492" height="100.5" rx="8" fill="#FFF7EE" stroke="#ED7100" stroke-width="1.6"/><text x="167.5" y="432" style="font-family:'Plus Jakarta Sans','Nunito',Arial,sans-serif;font-size:12.5px;font-weight:700;fill:#ED7100">ON DISASTER</text><text x="171.5" y="456" text-anchor="start" style="font-family:'Plus Jakarta Sans','Nunito',Arial,sans-serif;font-size:11.5px;font-weight:500;fill:#5f6881">1. Route 53 failover → DR ALB</text><text x="171.5" y="471.5" text-anchor="start" style="font-family:'Plus Jakarta Sans','Nunito',Arial,sans-serif;font-size:11.5px;font-weight:500;fill:#5f6881">2. Scale up the EC2 ASG to full capacity</text><text x="171.5" y="487" text-anchor="start" style="font-family:'Plus Jakarta Sans','Nunito',Arial,sans-serif;font-size:11.5px;font-weight:500;fill:#5f6881">3. Promote RDS read replica → primary</text><rect x="14" y="538.5" width="280" height="32" rx="6" fill="#EAF7EC" stroke="#2E8B2E" stroke-width="1.5"/><text x="154" y="558.5" text-anchor="middle" style="font-family:'Plus Jakarta Sans','Nunito',Arial,sans-serif;font-size:12px;font-weight:500;fill:#1a1f36">RTO: minutes (scale-up + DNS failover)</text><rect x="322" y="530.5" width="213" height="48" rx="6" fill="#EAF7EC" stroke="#2E8B2E" stroke-width="1.5"/><text x="428.5" y="550.5" text-anchor="middle" style="font-family:'Plus Jakarta Sans','Nunito',Arial,sans-serif;font-size:12px;font-weight:500;fill:#1a1f36">RPO: seconds (near-real-time</text><text x="428.5" y="566.5" text-anchor="middle" style="font-family:'Plus Jakarta Sans','Nunito',Arial,sans-serif;font-size:12px;font-weight:500;fill:#1a1f36">replication)</text><rect x="563" y="530.5" width="226" height="48" rx="6" fill="#FFF3E8" stroke="#ED7100" stroke-width="1.5"/><text x="676" y="550.5" text-anchor="middle" style="font-family:'Plus Jakarta Sans','Nunito',Arial,sans-serif;font-size:12px;font-weight:500;fill:#1a1f36">Cost: MEDIUM (reduced-capacity</text><text x="676" y="566.5" text-anchor="middle" style="font-family:'Plus Jakarta Sans','Nunito',Arial,sans-serif;font-size:12px;font-weight:500;fill:#1a1f36">infrastructure running)</text><path d="M352.9 202.0L462.9 202.0" fill="none" stroke="#5f6881" stroke-width="1.7" stroke-linejoin="round"/><path d="M462.9 202L454.9 197.5L454.9 206.5Z" fill="#5f6881"/><rect x="353.6" y="193.0" width="108.6" height="18" rx="4" fill="#fff" opacity=".94"/><text x="407.9" y="204.0" text-anchor="middle" style="font-family:'Plus Jakarta Sans','Nunito',Arial,sans-serif;font-size:10.5px;font-weight:600;fill:#3c4660">async replication</text></svg>
