<svg xmlns="http://www.w3.org/2000/svg" viewBox="0 0 716 410" width="716" height="410" role="img" aria-label="Auto Scaling architecture"><rect width="716" height="410" rx="12" fill="#ffffff"/><g transform="translate(46 39) scale(1)"><rect width="48" height="48" rx="5" fill="#232F3E"/><g fill="none" stroke="#fff" stroke-width="2" stroke-linecap="round" stroke-linejoin="round"><circle cx="24" cy="24" r="14"/><ellipse cx="24" cy="24" rx="6.5" ry="14"/><path d="M10 24H38"/></g></g><text x="70" y="106" text-anchor="middle" style="font-family:'Plus Jakarta Sans','Nunito',Arial,sans-serif;font-size:11.5px;font-weight:600;fill:#1a1f36">Internet</text><g transform="translate(186 39) scale(1)"><rect width="48" height="48" rx="5" fill="#8C4FFF"/><g fill="none" stroke="#fff" stroke-width="2" stroke-linecap="round" stroke-linejoin="round"><circle cx="24" cy="13" r="4.5"/><circle cx="11" cy="35" r="3.5"/><circle cx="24" cy="35" r="3.5"/><circle cx="37" cy="35" r="3.5"/><path d="M24 17.5V31.5M21.5 16.5L12.5 31.5M26.5 16.5L35.5 31.5"/></g></g><text x="210" y="106" text-anchor="middle" style="font-family:'Plus Jakarta Sans','Nunito',Arial,sans-serif;font-size:11.5px;font-weight:600;fill:#1a1f36">ALB (multi-AZ)</text><rect x="294" y="14" width="408" height="122" rx="8" fill="none" stroke="#232F3E" stroke-width="1.6"/><g transform="translate(302 20) scale(0.4583333333333333)"><rect width="48" height="48" rx="5" fill="#232F3E"/><g fill="none" stroke="#fff" stroke-width="2" stroke-linecap="round" stroke-linejoin="round"><path d="M15 35H34A7.5 7.5 0 0 0 33 20A10 10 0 0 0 15 22A6.5 6.5 0 0 0 15 35Z"/></g></g><text x="330" y="36" style="font-family:'Plus Jakarta Sans','Nunito',Arial,sans-serif;font-size:12.5px;font-weight:700;fill:#232F3E">Auto Scaling group</text><g transform="translate(342 48) scale(1)"><rect width="48" height="48" rx="5" fill="#ED7100"/><g fill="none" stroke="#fff" stroke-width="2" stroke-linecap="round" stroke-linejoin="round"><rect x="15" y="15" width="18" height="18" rx="2"/><path d="M20 15V10M28 15V10M20 38V33M28 38V33M15 20H10M15 28H10M38 20H33M38 28H33"/></g></g><text x="366" y="115" text-anchor="middle" style="font-family:'Plus Jakarta Sans','Nunito',Arial,sans-serif;font-size:11.5px;font-weight:600;fill:#1a1f36">EC2 (AZ-a)</text><g transform="translate(474 48) scale(1)"><rect width="48" height="48" rx="5" fill="#ED7100"/><g fill="none" stroke="#fff" stroke-width="2" stroke-linecap="round" stroke-linejoin="round"><rect x="15" y="15" width="18" height="18" rx="2"/><path d="M20 15V10M28 15V10M20 38V33M28 38V33M15 20H10M15 28H10M38 20H33M38 28H33"/></g></g><text x="498" y="115" text-anchor="middle" style="font-family:'Plus Jakarta Sans','Nunito',Arial,sans-serif;font-size:11.5px;font-weight:600;fill:#1a1f36">EC2 (AZ-b)</text><g transform="translate(606 48) scale(1)"><rect width="48" height="48" rx="5" fill="#ED7100"/><g fill="none" stroke="#fff" stroke-width="2" stroke-linecap="round" stroke-linejoin="round"><rect x="15" y="15" width="18" height="18" rx="2"/><path d="M20 15V10M28 15V10M20 38V33M28 38V33M15 20H10M15 28H10M38 20H33M38 28H33"/></g></g><text x="630" y="115" text-anchor="middle" style="font-family:'Plus Jakarta Sans','Nunito',Arial,sans-serif;font-size:11.5px;font-weight:600;fill:#1a1f36">EC2 (AZ-c)</text><rect x="186" y="156" width="96" height="32" rx="6" fill="#EEF3FF" stroke="#2f5be0" stroke-width="1.5"/><text x="234" y="176" text-anchor="middle" style="font-family:'Plus Jakarta Sans','Nunito',Arial,sans-serif;font-size:12px;font-weight:500;fill:#1a1f36">Min: 2</text><rect x="310" y="156" width="96" height="32" rx="6" fill="#EAF7EC" stroke="#2E8B2E" stroke-width="1.5"/><text x="358" y="176" text-anchor="middle" style="font-family:'Plus Jakarta Sans','Nunito',Arial,sans-serif;font-size:12px;font-weight:500;fill:#1a1f36">Desired: 4</text><rect x="434" y="156" width="96" height="32" rx="6" fill="#FFF3E8" stroke="#ED7100" stroke-width="1.5"/><text x="482" y="176" text-anchor="middle" style="font-family:'Plus Jakarta Sans','Nunito',Arial,sans-serif;font-size:12px;font-weight:500;fill:#1a1f36">Max: 20</text><rect x="132.5" y="208" width="451" height="188" rx="8" fill="#F4F7FF" stroke="#2f5be0" stroke-width="1.6"/><text x="144.5" y="230" style="font-family:'Plus Jakarta Sans','Nunito',Arial,sans-serif;font-size:12.5px;font-weight:700;fill:#2f5be0">Scaling triggers</text><text x="148.5" y="254" text-anchor="start" style="font-family:'Plus Jakarta Sans','Nunito',Arial,sans-serif;font-size:12px;font-weight:700;fill:#5f6881">Target tracking</text><text x="365" y="254" text-anchor="start" style="font-family:'Plus Jakarta Sans','Nunito',Arial,sans-serif;font-size:12px;font-weight:500;fill:#5f6881">Keep CPU at 60%</text><text x="158.5" y="288" text-anchor="start" style="font-family:'Plus Jakarta Sans','Nunito',Arial,sans-serif;font-size:12px;font-weight:700;fill:#5f6881">Step scaling</text><text x="287.5" y="288" text-anchor="start" style="font-family:'Plus Jakarta Sans','Nunito',Arial,sans-serif;font-size:12px;font-weight:500;fill:#5f6881">If CPU &gt; 80% add 3; if CPU &gt; 90% add 5</text><text x="163" y="322" text-anchor="start" style="font-family:'Plus Jakarta Sans','Nunito',Arial,sans-serif;font-size:12px;font-weight:700;fill:#5f6881">Scheduled</text><text x="338" y="322" text-anchor="start" style="font-family:'Plus Jakarta Sans','Nunito',Arial,sans-serif;font-size:12px;font-weight:500;fill:#5f6881">8am add 5, 8pm remove 5</text><text x="163" y="364" text-anchor="start" style="font-family:'Plus Jakarta Sans','Nunito',Arial,sans-serif;font-size:12px;font-weight:700;fill:#5f6881">Predictive</text><text x="287.5" y="356" text-anchor="start" style="font-family:'Plus Jakarta Sans','Nunito',Arial,sans-serif;font-size:12px;font-weight:500;fill:#5f6881">ML-based pre-scaling from historical</text><text x="287.5" y="372" text-anchor="start" style="font-family:'Plus Jakarta Sans','Nunito',Arial,sans-serif;font-size:12px;font-weight:500;fill:#5f6881">patterns</text><path d="M94.0 63.0L186.0 63.0" fill="none" stroke="#5f6881" stroke-width="1.7" stroke-linejoin="round"/><path d="M186 63L178 58.5L178 67.5Z" fill="#5f6881"/><path d="M234.0 63.0L264.0 63.0L264.0 75.0L294.0 75.0" fill="none" stroke="#5f6881" stroke-width="1.7" stroke-linejoin="round"/><path d="M294 75L286 70.5L286 79.5Z" fill="#5f6881"/></svg>
