<svg xmlns="http://www.w3.org/2000/svg" viewBox="0 0 564 350" width="564" height="350" role="img" aria-label="Region with three availability zones and edge locations serving users"><rect width="564" height="350" rx="12" fill="#ffffff"/><rect x="14" y="14" width="536" height="230" rx="8" fill="none" stroke="#00A4A6" stroke-width="1.6" stroke-dasharray="6 4"/><g transform="translate(22 20) scale(0.4583333333333333)"><rect width="48" height="48" rx="5" fill="#00A4A6"/><g fill="none" stroke="#fff" stroke-width="2" stroke-linecap="round" stroke-linejoin="round"><path d="M24 40C24 40 12 28 12 20a12 12 0 0 1 24 0C36 28 24 40 24 40Z"/><circle cx="24" cy="20" r="4"/></g></g><text x="50" y="36" style="font-family:'Plus Jakarta Sans','Nunito',Arial,sans-serif;font-size:12.5px;font-weight:700;fill:#00A4A6">Region (e.g. Asia Pacific, Mumbai)</text><rect x="30" y="48" width="144" height="122" rx="8" fill="none" stroke="#147EB4" stroke-width="1.6" stroke-dasharray="6 4"/><g transform="translate(38 54) scale(0.4583333333333333)"><rect width="48" height="48" rx="5" fill="#147EB4"/><g fill="none" stroke="#fff" stroke-width="2" stroke-linecap="round" stroke-linejoin="round"><path d="M24 40C24 40 12 28 12 20a12 12 0 0 1 24 0C36 28 24 40 24 40Z"/><circle cx="24" cy="20" r="4"/></g></g><text x="66" y="70" style="font-family:'Plus Jakarta Sans','Nunito',Arial,sans-serif;font-size:12.5px;font-weight:700;fill:#147EB4">AZ 1</text><g transform="translate(78 82) scale(1)"><rect width="48" height="48" rx="5" fill="#232F3E"/><g fill="none" stroke="#fff" stroke-width="2" stroke-linecap="round" stroke-linejoin="round"><rect x="10" y="10" width="28" height="10" rx="1.5"/><rect x="10" y="26" width="28" height="10" rx="1.5"/><path d="M15 15H17M15 31H17"/></g></g><text x="102" y="149" text-anchor="middle" style="font-family:'Plus Jakarta Sans','Nunito',Arial,sans-serif;font-size:11.5px;font-weight:600;fill:#1a1f36">Data centers</text><rect x="210" y="48" width="144" height="122" rx="8" fill="none" stroke="#147EB4" stroke-width="1.6" stroke-dasharray="6 4"/><g transform="translate(218 54) scale(0.4583333333333333)"><rect width="48" height="48" rx="5" fill="#147EB4"/><g fill="none" stroke="#fff" stroke-width="2" stroke-linecap="round" stroke-linejoin="round"><path d="M24 40C24 40 12 28 12 20a12 12 0 0 1 24 0C36 28 24 40 24 40Z"/><circle cx="24" cy="20" r="4"/></g></g><text x="246" y="70" style="font-family:'Plus Jakarta Sans','Nunito',Arial,sans-serif;font-size:12.5px;font-weight:700;fill:#147EB4">AZ 2</text><g transform="translate(258 82) scale(1)"><rect width="48" height="48" rx="5" fill="#232F3E"/><g fill="none" stroke="#fff" stroke-width="2" stroke-linecap="round" stroke-linejoin="round"><rect x="10" y="10" width="28" height="10" rx="1.5"/><rect x="10" y="26" width="28" height="10" rx="1.5"/><path d="M15 15H17M15 31H17"/></g></g><text x="282" y="149" text-anchor="middle" style="font-family:'Plus Jakarta Sans','Nunito',Arial,sans-serif;font-size:11.5px;font-weight:600;fill:#1a1f36">Data centers</text><rect x="390" y="48" width="144" height="122" rx="8" fill="none" stroke="#147EB4" stroke-width="1.6" stroke-dasharray="6 4"/><g transform="translate(398 54) scale(0.4583333333333333)"><rect width="48" height="48" rx="5" fill="#147EB4"/><g fill="none" stroke="#fff" stroke-width="2" stroke-linecap="round" stroke-linejoin="round"><path d="M24 40C24 40 12 28 12 20a12 12 0 0 1 24 0C36 28 24 40 24 40Z"/><circle cx="24" cy="20" r="4"/></g></g><text x="426" y="70" style="font-family:'Plus Jakarta Sans','Nunito',Arial,sans-serif;font-size:12.5px;font-weight:700;fill:#147EB4">AZ 3</text><g transform="translate(438 82) scale(1)"><rect width="48" height="48" rx="5" fill="#232F3E"/><g fill="none" stroke="#fff" stroke-width="2" stroke-linecap="round" stroke-linejoin="round"><rect x="10" y="10" width="28" height="10" rx="1.5"/><rect x="10" y="26" width="28" height="10" rx="1.5"/><path d="M15 15H17M15 31H17"/></g></g><text x="462" y="149" text-anchor="middle" style="font-family:'Plus Jakarta Sans','Nunito',Arial,sans-serif;font-size:11.5px;font-weight:600;fill:#1a1f36">Data centers</text><text x="152" y="204" text-anchor="start" style="font-family:'Plus Jakarta Sans','Nunito',Arial,sans-serif;font-size:12px;font-weight:500;fill:#5f6881">AZs are linked by fast, low-latency</text><text x="152" y="220" text-anchor="start" style="font-family:'Plus Jakarta Sans','Nunito',Arial,sans-serif;font-size:12px;font-weight:500;fill:#5f6881">private networking</text><g transform="translate(86 264) scale(1)"><rect width="48" height="48" rx="5" fill="#8C4FFF"/><g fill="none" stroke="#fff" stroke-width="2" stroke-linecap="round" stroke-linejoin="round"><circle cx="24" cy="24" r="14"/><path d="M10 24H38M24 10C17 18 17 30 24 38M24 10C31 18 31 30 24 38"/></g></g><text x="110" y="331" text-anchor="middle" style="font-family:'Plus Jakarta Sans','Nunito',Arial,sans-serif;font-size:11.5px;font-weight:600;fill:#1a1f36">Edge location</text><g transform="translate(258 264) scale(1)"><rect width="48" height="48" rx="5" fill="#8C4FFF"/><g fill="none" stroke="#fff" stroke-width="2" stroke-linecap="round" stroke-linejoin="round"><circle cx="24" cy="24" r="14"/><path d="M10 24H38M24 10C17 18 17 30 24 38M24 10C31 18 31 30 24 38"/></g></g><text x="282" y="331" text-anchor="middle" style="font-family:'Plus Jakarta Sans','Nunito',Arial,sans-serif;font-size:11.5px;font-weight:600;fill:#1a1f36">Edge location</text><g transform="translate(430 264) scale(1)"><rect width="48" height="48" rx="5" fill="#8C4FFF"/><g fill="none" stroke="#fff" stroke-width="2" stroke-linecap="round" stroke-linejoin="round"><circle cx="24" cy="24" r="14"/><path d="M10 24H38M24 10C17 18 17 30 24 38M24 10C31 18 31 30 24 38"/></g></g><text x="454" y="331" text-anchor="middle" style="font-family:'Plus Jakarta Sans','Nunito',Arial,sans-serif;font-size:11.5px;font-weight:600;fill:#1a1f36">Edge location</text><path d="M174.0 109.0L210.0 109.0" fill="none" stroke="#5f6881" stroke-width="1.7" stroke-linejoin="round" stroke-dasharray="6 4"/><path d="M210 109L202 104.5L202 113.5Z" fill="#5f6881"/><path d="M174 109L182 104.5L182 113.5Z" fill="#5f6881"/><path d="M354.0 109.0L390.0 109.0" fill="none" stroke="#5f6881" stroke-width="1.7" stroke-linejoin="round" stroke-dasharray="6 4"/><path d="M390 109L382 104.5L382 113.5Z" fill="#5f6881"/><path d="M354 109L362 104.5L362 113.5Z" fill="#5f6881"/><path d="M110.0 264.0L110.0 254.0L282.0 254.0L282.0 244.0" fill="none" stroke="#5f6881" stroke-width="1.7" stroke-linejoin="round"/><path d="M282 244L277.5 252L286.5 252Z" fill="#5f6881"/><path d="M282.0 264.0L282.0 244.0" fill="none" stroke="#5f6881" stroke-width="1.7" stroke-linejoin="round"/><path d="M282 244L277.5 252L286.5 252Z" fill="#5f6881"/><path d="M454.0 264.0L454.0 254.0L282.0 254.0L282.0 244.0" fill="none" stroke="#5f6881" stroke-width="1.7" stroke-linejoin="round"/><path d="M282 244L277.5 252L286.5 252Z" fill="#5f6881"/></svg>
