<svg xmlns="http://www.w3.org/2000/svg" viewBox="0 0 592 888" width="592" height="888" role="img" aria-label="Defense in depth: AWS security services by layer"><rect width="592" height="888" rx="12" fill="#ffffff"/><rect x="84" y="14" width="424" height="122" rx="8" fill="#F4F7FF" stroke="#2f5be0" stroke-width="1.6"/><text x="96" y="36" style="font-family:'Plus Jakarta Sans','Nunito',Arial,sans-serif;font-size:12.5px;font-weight:700;fill:#2f5be0">Edge</text><g transform="translate(132 48) scale(1)"><rect width="48" height="48" rx="5" fill="#DD344C"/><g fill="none" stroke="#fff" stroke-width="2" stroke-linecap="round" stroke-linejoin="round"><path d="M24 9L37 14V25C37 32 31.5 37 24 40C16.5 37 11 32 11 25V14Z"/></g></g><text x="156" y="115" text-anchor="middle" style="font-family:'Plus Jakarta Sans','Nunito',Arial,sans-serif;font-size:11.5px;font-weight:600;fill:#1a1f36">AWS Shield</text><g transform="translate(272 48) scale(1)"><rect width="48" height="48" rx="5" fill="#DD344C"/><g fill="none" stroke="#fff" stroke-width="2" stroke-linecap="round" stroke-linejoin="round"><path d="M24 9L37 14V25C37 32 31.5 37 24 40C16.5 37 11 32 11 25V14Z"/><path d="M16 20H32M16 27H32M24 20V27M20 27V33M28 27V33"/></g></g><text x="296" y="115" text-anchor="middle" style="font-family:'Plus Jakarta Sans','Nunito',Arial,sans-serif;font-size:11.5px;font-weight:600;fill:#1a1f36">AWS WAF</text><g transform="translate(412 48) scale(1)"><rect width="48" height="48" rx="5" fill="#8C4FFF"/><g fill="none" stroke="#fff" stroke-width="2" stroke-linecap="round" stroke-linejoin="round"><circle cx="24" cy="24" r="14"/><path d="M10 24H38M24 10C17 18 17 30 24 38M24 10C31 18 31 30 24 38"/></g></g><text x="436" y="115" text-anchor="middle" style="font-family:'Plus Jakarta Sans','Nunito',Arial,sans-serif;font-size:11.5px;font-weight:600;fill:#1a1f36">CloudFront</text><rect x="84" y="156" width="424" height="122" rx="8" fill="#F4F7FF" stroke="#2f5be0" stroke-width="1.6"/><text x="96" y="178" style="font-family:'Plus Jakarta Sans','Nunito',Arial,sans-serif;font-size:12.5px;font-weight:700;fill:#2f5be0">Network</text><g transform="translate(132 190) scale(1)"><rect width="48" height="48" rx="5" fill="#8C4FFF"/><g fill="none" stroke="#fff" stroke-width="2" stroke-linecap="round" stroke-linejoin="round"><path d="M15 35H34A7.5 7.5 0 0 0 33 20A10 10 0 0 0 15 22A6.5 6.5 0 0 0 15 35Z"/></g></g><text x="156" y="257" text-anchor="middle" style="font-family:'Plus Jakarta Sans','Nunito',Arial,sans-serif;font-size:11.5px;font-weight:600;fill:#1a1f36">Security groups</text><g transform="translate(272 190) scale(1)"><rect width="48" height="48" rx="5" fill="#8C4FFF"/><g fill="none" stroke="#fff" stroke-width="2" stroke-linecap="round" stroke-linejoin="round"><path d="M15 35H34A7.5 7.5 0 0 0 33 20A10 10 0 0 0 15 22A6.5 6.5 0 0 0 15 35Z"/></g></g><text x="296" y="257" text-anchor="middle" style="font-family:'Plus Jakarta Sans','Nunito',Arial,sans-serif;font-size:11.5px;font-weight:600;fill:#1a1f36">NACLs</text><g transform="translate(412 190) scale(1)"><rect width="48" height="48" rx="5" fill="#8C4FFF"/><g fill="none" stroke="#fff" stroke-width="2" stroke-linecap="round" stroke-linejoin="round"><path d="M15 35H34A7.5 7.5 0 0 0 33 20A10 10 0 0 0 15 22A6.5 6.5 0 0 0 15 35Z"/></g></g><text x="436" y="257" text-anchor="middle" style="font-family:'Plus Jakarta Sans','Nunito',Arial,sans-serif;font-size:11.5px;font-weight:600;fill:#1a1f36">VPC</text><rect x="84" y="298" width="424" height="136" rx="8" fill="#F4F7FF" stroke="#2f5be0" stroke-width="1.6"/><text x="96" y="320" style="font-family:'Plus Jakarta Sans','Nunito',Arial,sans-serif;font-size:12.5px;font-weight:700;fill:#2f5be0">Identity</text><g transform="translate(132 339) scale(1)"><rect width="48" height="48" rx="5" fill="#DD344C"/><g fill="none" stroke="#fff" stroke-width="2" stroke-linecap="round" stroke-linejoin="round"><circle cx="24" cy="16" r="6.5"/><path d="M11 38C11 27 37 27 37 38"/></g></g><text x="156" y="406" text-anchor="middle" style="font-family:'Plus Jakarta Sans','Nunito',Arial,sans-serif;font-size:11.5px;font-weight:600;fill:#1a1f36">IAM</text><g transform="translate(272 339) scale(1)"><rect width="48" height="48" rx="5" fill="#DD344C"/><g fill="none" stroke="#fff" stroke-width="2" stroke-linecap="round" stroke-linejoin="round"><rect x="13" y="22" width="22" height="15" rx="2"/><path d="M17.5 22V17.5a6.5 6.5 0 0 1 13 0V22"/></g></g><text x="296" y="406" text-anchor="middle" style="font-family:'Plus Jakarta Sans','Nunito',Arial,sans-serif;font-size:11.5px;font-weight:600;fill:#1a1f36">MFA</text><g transform="translate(412 332) scale(1)"><rect width="48" height="48" rx="5" fill="#DD344C"/><g fill="none" stroke="#fff" stroke-width="2" stroke-linecap="round" stroke-linejoin="round"><circle cx="18" cy="17" r="5"/><path d="M8 36C8 28 28 28 28 36"/><circle cx="32" cy="19" r="4.5"/><path d="M30 29C36 27 41 30 41 36"/></g></g><text x="436" y="399" text-anchor="middle" style="font-family:'Plus Jakarta Sans','Nunito',Arial,sans-serif;font-size:11.5px;font-weight:600;fill:#1a1f36">IAM Identity</text><text x="436" y="413" text-anchor="middle" style="font-family:'Plus Jakarta Sans','Nunito',Arial,sans-serif;font-size:11.5px;font-weight:600;fill:#1a1f36">Center</text><rect x="154" y="454" width="284" height="136" rx="8" fill="#F4F7FF" stroke="#2f5be0" stroke-width="1.6"/><text x="166" y="476" style="font-family:'Plus Jakarta Sans','Nunito',Arial,sans-serif;font-size:12.5px;font-weight:700;fill:#2f5be0">Workload</text><g transform="translate(202 495) scale(1)"><rect width="48" height="48" rx="5" fill="#DD344C"/><g fill="none" stroke="#fff" stroke-width="2" stroke-linecap="round" stroke-linejoin="round"><circle cx="21" cy="21" r="10"/><path d="M28.5 28.5L38 38"/></g></g><text x="226" y="562" text-anchor="middle" style="font-family:'Plus Jakarta Sans','Nunito',Arial,sans-serif;font-size:11.5px;font-weight:600;fill:#1a1f36">Inspector</text><g transform="translate(342 488) scale(1)"><rect width="48" height="48" rx="5" fill="#E7157B"/><g fill="none" stroke="#fff" stroke-width="2" stroke-linecap="round" stroke-linejoin="round"><circle cx="24" cy="24" r="6"/><circle cx="24" cy="24" r="12"/><path d="M24 8V12M24 36V40M8 24H12M36 24H40M13 13L16 16M32 32L35 35M35 13L32 16M16 32L13 35"/></g></g><text x="366" y="555" text-anchor="middle" style="font-family:'Plus Jakarta Sans','Nunito',Arial,sans-serif;font-size:11.5px;font-weight:600;fill:#1a1f36">Systems Manager</text><text x="366" y="569" text-anchor="middle" style="font-family:'Plus Jakarta Sans','Nunito',Arial,sans-serif;font-size:11.5px;font-weight:600;fill:#1a1f36">patching</text><rect x="84" y="610" width="424" height="122" rx="8" fill="#F4F7FF" stroke="#2f5be0" stroke-width="1.6"/><text x="96" y="632" style="font-family:'Plus Jakarta Sans','Nunito',Arial,sans-serif;font-size:12.5px;font-weight:700;fill:#2f5be0">Data</text><g transform="translate(132 644) scale(1)"><rect width="48" height="48" rx="5" fill="#DD344C"/><g fill="none" stroke="#fff" stroke-width="2" stroke-linecap="round" stroke-linejoin="round"><circle cx="16" cy="24" r="6.5"/><path d="M22.5 24H39M33 24V30M38 24V28"/></g></g><text x="156" y="711" text-anchor="middle" style="font-family:'Plus Jakarta Sans','Nunito',Arial,sans-serif;font-size:11.5px;font-weight:600;fill:#1a1f36">AWS KMS</text><g transform="translate(272 644) scale(1)"><rect width="48" height="48" rx="5" fill="#DD344C"/><g fill="none" stroke="#fff" stroke-width="2" stroke-linecap="round" stroke-linejoin="round"><circle cx="21" cy="21" r="10"/><path d="M28.5 28.5L38 38"/></g></g><text x="296" y="711" text-anchor="middle" style="font-family:'Plus Jakarta Sans','Nunito',Arial,sans-serif;font-size:11.5px;font-weight:600;fill:#1a1f36">Amazon Macie</text><g transform="translate(412 644) scale(1)"><rect width="48" height="48" rx="5" fill="#DD344C"/><g fill="none" stroke="#fff" stroke-width="2" stroke-linecap="round" stroke-linejoin="round"><rect x="13" y="22" width="22" height="15" rx="2"/><path d="M17.5 22V17.5a6.5 6.5 0 0 1 13 0V22"/></g></g><text x="436" y="711" text-anchor="middle" style="font-family:'Plus Jakarta Sans','Nunito',Arial,sans-serif;font-size:11.5px;font-weight:600;fill:#1a1f36">Secrets Manager</text><rect x="14" y="752" width="564" height="122" rx="8" fill="#FFF7EE" stroke="#ED7100" stroke-width="1.6"/><text x="26" y="774" style="font-family:'Plus Jakarta Sans','Nunito',Arial,sans-serif;font-size:12.5px;font-weight:700;fill:#ED7100">Detect and respond</text><g transform="translate(62 786) scale(1)"><rect width="48" height="48" rx="5" fill="#DD344C"/><g fill="none" stroke="#fff" stroke-width="2" stroke-linecap="round" stroke-linejoin="round"><path d="M24 9L37 14V25C37 32 31.5 37 24 40C16.5 37 11 32 11 25V14Z"/><path d="M18 24L22.5 28.5L30.5 19.5"/></g></g><text x="86" y="853" text-anchor="middle" style="font-family:'Plus Jakarta Sans','Nunito',Arial,sans-serif;font-size:11.5px;font-weight:600;fill:#1a1f36">GuardDuty</text><g transform="translate(202 786) scale(1)"><rect width="48" height="48" rx="5" fill="#DD344C"/><g fill="none" stroke="#fff" stroke-width="2" stroke-linecap="round" stroke-linejoin="round"><circle cx="21" cy="21" r="10"/><path d="M28.5 28.5L38 38"/></g></g><text x="226" y="853" text-anchor="middle" style="font-family:'Plus Jakarta Sans','Nunito',Arial,sans-serif;font-size:11.5px;font-weight:600;fill:#1a1f36">Detective</text><g transform="translate(342 786) scale(1)"><rect width="48" height="48" rx="5" fill="#DD344C"/><g fill="none" stroke="#fff" stroke-width="2" stroke-linecap="round" stroke-linejoin="round"><path d="M24 9L37 14V25C37 32 31.5 37 24 40C16.5 37 11 32 11 25V14Z"/><path d="M18 24L22.5 28.5L30.5 19.5"/></g></g><text x="366" y="853" text-anchor="middle" style="font-family:'Plus Jakarta Sans','Nunito',Arial,sans-serif;font-size:11.5px;font-weight:600;fill:#1a1f36">Security Hub</text><g transform="translate(482 786) scale(1)"><rect width="48" height="48" rx="5" fill="#E7157B"/><g fill="none" stroke="#fff" stroke-width="2" stroke-linecap="round" stroke-linejoin="round"><path d="M15 9H29L35 15V39H15Z"/><path d="M20 22H30M20 28H30M20 34H26"/></g></g><text x="506" y="853" text-anchor="middle" style="font-family:'Plus Jakarta Sans','Nunito',Arial,sans-serif;font-size:11.5px;font-weight:600;fill:#1a1f36">CloudTrail</text></svg>
